<?xml version="1.0" encoding="UTF-8" standalone="no"?>
<svg
   width="1000"
   height="1000"
   version="1.1"
   id="svg22739"
   sodipodi:docname="4568-CryptoPunks with text converted path.svg"
   inkscape:version="1.1.1 (3bf5ae0d25, 2021-09-20)"
   xmlns:inkscape="http://www.inkscape.org/namespaces/inkscape"
   xmlns:sodipodi="http://sodipodi.sourceforge.net/DTD/sodipodi-0.dtd"
   xmlns="http://www.w3.org/2000/svg"
   xmlns:svg="http://www.w3.org/2000/svg">
  <defs
     id="defs22743" />
  <sodipodi:namedview
     id="namedview22741"
     pagecolor="#ffffff"
     bordercolor="#666666"
     borderopacity="1.0"
     inkscape:pageshadow="2"
     inkscape:pageopacity="0.0"
     inkscape:pagecheckerboard="0"
     showgrid="false"
     inkscape:zoom="0.873"
     inkscape:cx="500"
     inkscape:cy="500"
     inkscape:window-width="1776"
     inkscape:window-height="1111"
     inkscape:window-x="114"
     inkscape:window-y="114"
     inkscape:window-maximized="0"
     inkscape:current-layer="svg22739" />
  <mask
     id="_mask">
    <circle
       cx="500"
       cy="500"
       r="450"
       fill="white"
       stroke="none"
       id="circle22719" />
  </mask>
  <path
     id="path-0"
     d="M 504.28 105.614 C 804.145 105.541 991.639 430.111 841.768 689.836 C 691.898 949.563 317.067 949.655 167.072 690 C 26.805 447.185 181.324 140.169 459.907 108.16 Z"
     style="fill: none;" />
  <circle
     cx="500"
     cy="500"
     r="450"
     fill="rgb(255,255,255)"
     id="circle22723" />
  <circle
     cx="500"
     cy="500"
     r="450"
     fill="rgb(255,255,255)"
     mask="url(#_mask)"
     stroke-width="130"
     stroke="rgb(0,0,0)"
     stroke-linejoin="miter"
     stroke-linecap="square"
     stroke-miterlimit="3"
     id="circle22725" />
  <path
     transform="translate(275, 258)"
     d=" M 168.644 121.539 L 150.226 121.539 L 150.226 76.647 L 113.499 76.647 L 101.545 121.539 L 68.944 121.539 L 119.43 0 L 65.297 0 L 0 157.242 L 0 167.21 L 97.852 167.21 L 97.852 203.832 L 150.229 203.832 L 150.229 167.21 L 168.647 167.21 L 168.644 121.539 Z "
     fill="rgb(0,0,0)"
     id="path22727" />
  <path
     transform="translate(565, 258)"
     d=" M 73.174 68.13 L 54.639 68.13 L 57.149 45.402 L 134.157 45.402 L 134.157 0 L 16.064 0 L 4.936 103.836 L 10.019 110.417 L 72.012 110.417 C 86.617 110.417 96.639 120.185 96.639 134.49 C 96.639 147.977 87.09 158 73.992 158 C 60.594 158 51.09 148.325 51.09 134.801 L 0 134.801 C 0 175.219 30.588 203.8 73.992 203.8 C 117.432 203.8 148.448 174.956 148.448 134.493 C 148.448 95.438 117.779 68.136 73.177 68.136 L 73.174 68.13 Z "
     fill="rgb(0,0,0)"
     id="path22729" />
  <path
     transform="translate(280, 538)"
     d=" M 90.593 64.845 C 86.082 64.845 81.709 65.157 77.413 65.813 C 90.554 43.851 103.811 21.979 116.924 0 L 59.397 0 L 22.782 61.721 C 6.098 89.661 0 109.873 0 130.295 C 0 173.763 32.295 203.8 79.303 203.8 C 126.048 203.8 158.26 173.718 158.26 130.041 C 158.26 91.539 130.457 64.845 90.593 64.845 L 90.593 64.845 Z M 79.13 158.044 C 62.991 158.044 51.3 146.698 51.3 130.041 C 51.3 113.213 62.991 101.741 79.13 101.741 C 95.439 101.741 106.959 113.213 106.959 130.041 C 106.959 146.698 95.439 158.044 79.13 158.044 Z "
     fill="rgb(0,0,0)"
     id="path22731" />
  <path
     transform="translate(563, 538)"
     d=" M 127.853 96.393 C 141.478 85.573 148.39 72.221 148.39 56.483 C 148.39 22.839 119.758 0 76.949 0 C 34.138 0 5.339 23.009 5.339 56.486 C 5.339 72.045 12.222 85.351 25.791 96.36 C 8.364 107.419 0 122.35 0 141.881 C 0 178.827 30.97 203.8 76.783 203.8 C 122.596 203.8 153.735 178.658 153.735 141.878 C 153.735 122.479 145.23 107.559 127.856 96.39 L 127.853 96.393 Z M 76.952 38.635 C 90.112 38.635 99.058 46.827 99.058 58.064 C 99.058 69.304 90.112 77.496 76.952 77.496 C 63.792 77.496 54.68 69.304 54.68 58.064 C 54.68 46.827 63.792 38.635 76.952 38.635 Z M 76.952 163.364 C 61.241 163.364 50.834 153.881 50.834 140.259 C 50.834 126.637 61.241 117.151 76.952 117.151 C 92.663 117.151 102.901 126.637 102.901 140.259 C 102.901 153.881 92.663 163.364 76.952 163.364 Z "
     fill="rgb(0,0,0)"
     id="path22733" />
  <g
     transform="matrix(1.009427, 0, 0, 1.009427, -8.6461, 0.737298)"
     fill="rgb(255,255,255)">
    <path
       d="m 514.70468,83.577757 q -0.0105,3.748339 -2.66922,6.392162 -2.62815,2.613435 -6.34601,2.603002 -3.74834,-0.01052 -6.39216,-2.669222 -2.61335,-2.658618 -2.60292,-6.376482 0.0104,-3.717864 2.63858,-6.331299 2.6587,-2.643823 6.40704,-2.633305 3.71786,0.01043 6.3313,2.638577 2.64391,2.628229 2.63339,6.376567 z" />
    <path
       d="m 566.96191,93.705257 8.3356,3.834525 q -2.90122,7.008628 -7.99956,9.965758 -5.06432,2.93066 -12.20097,2.04037 -8.83008,-1.10155 -13.7645,-7.82853 -4.93064,-6.757215 -3.62538,-17.220262 1.38071,-11.067846 7.8581,-16.463343 6.48116,-5.425736 15.79509,-4.263831 8.13456,1.01478 12.61507,6.45671 2.6694,3.219803 3.51745,8.730667 l -9.12439,1.011483 q -0.35619,-3.545445 -2.61713,-5.854397 -2.2307,-2.30518 -5.79902,-2.750325 -4.92913,-0.614904 -8.45498,2.538391 -3.49562,3.157068 -4.48399,11.079953 -1.04873,8.406725 1.53012,12.352289 2.57886,3.945565 7.41726,4.549155 3.56833,0.44514 6.42166,-1.5022 2.85333,-1.94735 4.57957,-6.676413 z" />
    <path
       d="m 577.52663,111.90007 10.04488,-43.531597 18.49944,4.26873 q 6.97812,1.610195 9.85162,3.524261 2.91005,1.891224 4.11843,5.328853 1.20839,3.437628 0.31764,7.297865 -1.13056,4.899532 -4.7509,7.441864 -3.61348,2.512638 -9.5363,2.021658 2.46693,2.320656 3.84889,4.734976 1.41165,2.42118 3.38756,8.22517 l 3.3556,9.71902 -10.51172,-2.42558 -4.16879,-10.93873 q -2.21346,-5.85881 -3.15913,-7.45313 -0.93881,-1.624018 -2.22481,-2.421163 -1.27914,-0.826839 -4.30794,-1.525732 l -1.78165,-0.411114 -4.19336,18.172809 z m 14.58616,-23.093076 6.50302,1.500565 q 6.32485,1.459454 8.02197,1.28811 1.69713,-0.171344 2.88943,-1.272329 1.19231,-1.100985 1.64454,-3.060797 0.50704,-2.197366 -0.37239,-3.807678 -0.84289,-1.633154 -2.89864,-2.48282 -1.03473,-0.395139 -6.37968,-1.62848 l -6.85934,-1.582787 z"
       id="path22749" />
    <path
       d="m 626.51899,124.7032 6.03741,-17.80707 -7.19065,-29.757359 10.01467,3.395433 4.28159,20.115086 15.43029,-13.431857 9.8415,3.336722 -23.88306,19.286305 -6.01784,17.74935 z"
       id="path22751" />
    <path
       d="m 651.16548,133.33617 18.47254,-40.677564 13.17998,5.985305 q 7.49177,3.402169 9.48984,5.045869 3.08034,2.50334 4.04019,6.65435 0.97245,4.12326 -1.23266,8.97904 -1.70109,3.74589 -4.21997,5.68121 -2.51887,1.93532 -5.2955,2.44828 -2.73629,0.49781 -5.11479,-0.0133 -3.20583,-0.75298 -8.78304,-3.28571 l -5.35523,-2.43192 -6.96816,15.34426 z m 23.56079,-30.06644 -5.24187,11.54289 4.49507,2.0413 q 4.85578,2.20511 6.78268,2.31036 1.92691,0.10525 3.46,-0.83855 1.56084,-0.93119 2.37988,-2.73477 1.00806,-2.21978 0.35916,-4.25487 -0.64889,-2.0351 -2.48288,-3.30306 -1.34461,-0.9453 -5.78418,-2.96141 z"
       id="path22753" />
    <path
       d="m 694.19889,154.29884 18.42851,-32.21993 -11.50711,-6.58161 3.75227,-6.56038 30.81791,17.62662 -3.75228,6.56038 -11.48066,-6.56648 -18.42852,32.21992 z"
       id="path22755" />
    <path
       d="m 725.67925,146.78281 q 3.97321,-5.55082 8.3296,-8.12903 3.22562,-1.88854 6.93538,-2.56857 3.73454,-0.66229 7.04964,0.0991 4.42369,0.99277 8.85939,4.16779 8.02887,5.74695 9.27103,14.1689 1.26695,8.43968 -5.08308,17.31108 -6.29682,8.79706 -14.64468,10.35459 -8.33013,1.53275 -16.33421,-4.19647 -8.10321,-5.80016 -9.35607,-14.15481 -1.23512,-8.37943 4.973,-17.05259 z m 7.73542,5.16214 q -4.41664,6.17033 -3.85503,11.40682 0.57935,5.21171 4.96549,8.35125 4.38614,3.13954 9.43899,1.99677 5.09537,-1.14983 9.61844,-7.46884 4.46985,-6.24467 3.91867,-11.28631 -0.52639,-5.0239 -5.06122,-8.26987 -4.53482,-3.24596 -9.54515,-2.11023 -4.9926,1.11096 -9.48019,7.38041 z"
       id="path22757" />
    <path
       d="m 750.44477,192.22586 29.724,-33.35241 10.80654,9.63089 q 6.14267,5.47441 7.56216,7.63752 2.19749,3.30549 1.8807,7.55423 -0.29651,4.226 -3.84474,8.20736 -2.7372,3.07133 -5.71733,4.17089 -2.98013,1.09955 -5.78379,0.76439 -2.76062,-0.33764 -4.87986,-1.53237 -2.83735,-1.67145 -7.41023,-5.74684 l -4.39087,-3.91318 -11.21239,12.58109 z m 31.42984,-21.70869 -8.43464,9.46426 3.6856,3.28464 q 3.98136,3.54823 5.78999,4.22122 1.80862,0.673 3.55289,0.22731 1.76703,-0.42541 3.08494,-1.9042 1.62205,-1.82005 1.6071,-3.95604 -0.0149,-2.13598 -1.38941,-3.89158 -1.00303,-1.30211 -4.64313,-4.5462 z"
       id="path22759" />
    <path
       d="m 811.47519,187.32131 6.09432,6.65036 -17.83914,16.34761 q -4.24635,3.89131 -5.27805,5.29143 -1.63088,2.27988 -1.40477,5.00746 0.26916,2.72946 2.82219,5.51542 2.5942,2.8309 5.05773,3.21878 2.486,0.36729 4.43872,-0.8848 1.95271,-1.25209 5.86204,-4.83457 l 18.2211,-16.69762 6.09432,6.65036 -17.29993,15.85348 q -5.9314,5.43548 -8.87449,7.14045 -2.94308,1.70498 -5.96642,1.78876 -3.00275,0.10626 -6.23739,-1.39373 -3.21217,-1.52057 -6.79464,-5.4299 -4.32368,-4.71816 -5.48944,-8.15538 -1.1227,-3.43534 -0.68981,-6.43614 0.45536,-3.02138 1.95332,-5.22079 2.23381,-3.24576 7.7608,-8.31064 z"
       id="path22761" />
    <path
       d="m 806.32492,248.25827 35.90624,-26.58272 5.22225,7.05388 -13.09862,32.44764 23.97832,-17.75204 4.98652,6.73548 -35.90624,26.58273 -5.38545,-7.27433 12.69849,-31.81014 -23.41499,17.33498 z"
       id="path22763" />
    <path
       d="m 830.68032,281.64386 38.47038,-22.71407 4.5862,7.76755 -17.08337,10.08654 26.34873,5.60602 6.16657,10.44421 -23.53666,-5.63841 -14.4689,29.13973 -5.93417,-10.05058 11.81027,-21.23523 -10.14776,-2.50201 -11.62509,6.8638 z"
       id="path22765" />
    <path
       d="m 863.53858,309.08476 4.46334,7.605 q -3.67644,2.5763 -4.5448,5.63181 -0.85556,3.08316 0.87371,6.81613 1.83174,3.95417 4.41311,5.17652 2.62183,1.2372 4.86161,0.19964 1.43788,-0.66609 2.03624,-1.98443 0.63883,-1.30349 0.41191,-3.75087 -0.16836,-1.66845 -1.26612,-7.37322 -1.41719,-7.33683 -0.26885,-11.09299 1.61657,-5.28289 6.42795,-7.51172 3.09697,-1.43465 6.58617,-0.93511 3.52965,0.51438 6.4642,3.15164 2.94735,2.66491 5.11214,7.33802 3.53539,7.63184 1.97005,13.02534 -1.55253,5.42116 -7.04848,8.20221 l -4.15105,-8.01834 q 2.88125,-1.97284 3.42919,-4.34255 0.5884,-2.35487 -1.01278,-5.81131 -1.65241,-3.56706 -4.05302,-4.90672 -1.5422,-0.86411 -3.11834,-0.13398 -1.43788,0.66609 -1.89738,2.35671 -0.5823,2.15053 0.7743,8.77655 1.35659,6.62602 1.15512,10.17864 -0.16101,3.56747 -2.04496,6.38816 -1.8435,2.83552 -5.68707,4.61602 -3.4841,1.61399 -7.42243,1.08741 -3.93833,-0.52658 -7.07111,-3.37428 -3.10513,-2.8605 -5.55173,-8.14195 -3.561,-7.68714 -1.9302,-13.44683 1.65846,-5.77249 8.08928,-9.7255 z"
       id="path22767" />
    <path
       d="m 899.21294,377.8483 q -3.56479,1.15864 -6.90575,-0.54327 -3.30256,-1.68235 -4.45178,-5.21815 -1.15863,-3.56479 0.54327,-6.90575 1.71133,-3.31198 5.24714,-4.4612 3.5358,-1.14922 6.83836,0.53313 3.34096,1.70191 4.4996,5.2667 1.14922,3.5358 -0.53313,6.83836 -1.67293,3.33154 -5.23771,4.49018 z"
       id="path22769" />
    <path
       d="m 905.73944,430.75855 -1.08114,9.11136 q -7.56146,-0.60185 -11.94496,-4.54173 -4.34783,-3.91566 -5.69861,-10.97964 -1.6713,-8.74017 3.20915,-15.5064 4.91037,-6.77196 15.26688,-8.75233 10.95514,-2.09485 18.08319,2.40614 7.15798,4.49527 8.92085,13.71435 1.53966,8.05174 -2.25797,13.99038 -2.24126,3.53123 -7.22312,6.0352 l -3.77227,-8.36945 q 3.26344,-1.43073 4.7639,-4.29285 1.50618,-2.83219 0.83079,-6.36418 -0.93295,-4.87893 -5.01881,-7.26234 -4.08014,-2.35348 -11.92235,-0.85389 -8.32112,1.59117 -11.28075,5.25977 -2.95962,3.66859 -2.04384,8.45773 0.67539,3.53199 3.4068,5.64694 2.73142,2.11496 7.76226,2.30094 z"
       id="path22771" />
    <path
       d="m 891.67144,446.41532 44.51366,-3.79916 1.61452,18.91678 q 0.609,7.13555 -0.33086,10.45779 -0.9069,3.35002 -3.80781,5.55507 -2.90091,2.20504 -6.84823,2.54193 -5.01007,0.4276 -8.54076,-2.23782 -3.50033,-2.66802 -4.85068,-8.45571 -1.4516,3.06007 -3.32532,5.11627 -1.87112,2.08656 -6.78867,5.7483 l -8.22023,6.17633 -0.91739,-10.74886 9.13153,-7.3246 q 4.89682,-3.90464 6.12399,-5.29396 1.25754,-1.39191 1.62156,-2.86048 0.39439,-1.47117 0.13006,-4.5683 l -0.1555,-1.82184 -18.58278,1.58601 z m 26.45506,6.79533 0.56754,6.64972 q 0.55199,6.46754 1.23589,8.03018 0.68391,1.56265 2.09767,2.35954 1.41376,0.7969 3.41779,0.62586 2.24694,-0.19178 3.50966,-1.52296 1.29567,-1.3034 1.47345,-3.52071 0.0585,-1.10606 -0.40795,-6.57159 l -0.59864,-7.01409 z"
       id="path22773" />
    <path
       d="m 894.51603,496.97325 18.80055,0.28514 26.11798,-15.97052 -0.16037,10.5734 -17.83256,10.24443 17.51692,10.56721 -0.15759,10.39058 -25.68165,-16.81711 -18.73961,-0.28421 z"
       id="path22775" />
    <path
       d="m 893.85792,523.07983 44.38266,5.10675 -1.65464,14.38047 q -0.94054,8.17416 -1.89222,10.58005 -1.43798,3.69965 -5.09457,5.88633 -3.6263,2.19017 -8.92437,1.58056 -4.08708,-0.47026 -6.70166,-2.2742 -2.61458,-1.80394 -3.95439,-4.28944 -1.31303,-2.45173 -1.55599,-4.87238 -0.26652,-3.28226 0.43366,-9.36747 l 0.6723,-5.84301 -16.74189,-1.92636 z m 35.84344,13.20416 -12.59426,-1.44912 -0.56432,4.90449 q -0.60961,5.29807 -0.11882,7.1644 0.4908,1.86632 1.8593,3.03607 1.36502,1.20003 3.33288,1.42646 2.42197,0.27867 4.15997,-0.9631 1.73801,-1.24177 2.38239,-3.37626 0.48737,-1.56972 1.04472,-6.41367 z"
       id="path22777" />
    <path
       d="m 887.10339,570.46856 36.31912,7.65867 2.73524,-12.97112 7.39502,1.5594 -7.32541,34.73874 -7.39502,-1.5594 2.72895,-12.9413 -36.31912,-7.65867 z"
       id="path22779" />
    <path
       d="m 903.91054,598.11945 q 6.50247,2.07746 10.29348,5.4321 2.78751,2.49017 4.57349,5.81208 1.7767,3.35093 2.06968,6.7397 0.41308,4.51487 -1.24703,9.71104 -3.0049,9.40536 -10.63894,13.17281 -7.6433,3.79648 -18.03564,0.47625 -10.30525,-3.2924 -14.3501,-10.75912 -4.01582,-7.45745 -1.0202,-16.83378 3.03272,-9.49244 10.59942,-13.24942 7.59574,-3.74769 17.75584,-0.50166 z m -2.53839,8.94655 q -7.22819,-2.30932 -12.03947,-0.16739 -4.78225,2.1512 -6.42382,7.28931 -1.64156,5.13811 0.9971,9.59622 2.65842,4.49641 10.06078,6.86138 7.31528,2.33714 11.94431,0.26496 4.61977,-2.04315 6.31698,-7.35544 1.69721,-5.31228 -0.9217,-9.73209 -2.58988,-4.41053 -9.93418,-6.75695 z"
       id="path22781" />
    <path
       d="m 868.26128,635.63672 40.89067,17.9959 -5.83087,13.24903 q -3.31439,7.53102 -4.93462,9.54816 -2.46717,3.10939 -6.60668,4.11768 -4.11161,1.02057 -8.99283,-1.12764 -3.76551,-1.6572 -5.73014,-4.15328 -1.96462,-2.49609 -2.51,-5.26654 -0.52975,-2.73028 -0.0464,-5.11459 0.71546,-3.21441 3.18284,-8.82084 l 2.36917,-5.38329 -15.42465,-6.78835 z m 30.33973,23.20781 -11.60335,-5.10661 -1.98863,4.51861 q -2.14822,4.88122 -2.23094,6.80923 -0.0827,1.928 0.87892,3.44996 0.94938,1.54985 2.7624,2.34776 2.23142,0.98204 4.25878,0.30941 2.02737,-0.67263 3.27381,-2.52132 0.92953,-1.35556 2.89362,-5.81839 z"
       id="path22783" />
    <path
       d="m 891.80862,692.04801 -4.42156,7.86244 -21.09046,-11.86053 q -5.02027,-2.82323 -6.67207,-3.36756 -2.67442,-0.8397 -5.19592,0.22464 -2.50988,1.10585 -4.36216,4.39958 -1.88215,3.34684 -1.48348,5.80865 0.42522,2.47675 2.2232,3.94239 1.79799,1.46563 6.41982,4.06479 l 21.54202,12.11448 -4.42156,7.86243 -20.45296,-11.50202 q -7.01244,-3.94356 -9.54923,-6.20926 -2.53678,-2.2657 -3.558,-5.11258 -1.03616,-2.82031 -0.61819,-6.36124 0.44453,-3.52598 3.04369,-8.14782 3.13691,-5.57808 6.04011,-7.75636 2.91482,-2.13678 5.90119,-2.66 3.01294,-0.50828 5.56949,0.23017 3.78004,1.11185 10.31436,4.78652 z"
       id="path22785" />
    <path
       d="m 832.32212,706.14787 36.52314,25.72857 -5.05445,7.17508 -34.9204,-2.23355 24.39029,17.18163 -4.8263,6.8512 -36.52315,-25.72857 5.21241,-7.3993 34.18943,2.05412 -23.81727,-16.77798 z"
       id="path22787" />
    <path
       d="m 808.29927,739.77426 33.63326,29.40583 -5.93733,6.79089 -14.93537,-13.05812 2.94035,26.77756 -7.9833,9.13099 -2.02768,-24.11753 -32.20734,-4.60004 7.68243,-8.78686 23.86782,4.55458 -0.80678,-10.42048 -10.16339,-8.88593 z"
       id="path22789" />
    <path
       d="m 792.51649,779.61578 -5.84213,6.60506 q -3.59094,-2.69418 -6.76504,-2.57036 -3.1964,0.14458 -6.20745,2.94796 -3.18949,2.96951 -3.54943,5.80289 -0.36149,2.87645 1.32054,4.68308 1.07982,1.15981 2.51882,1.31902 1.43745,0.20228 3.69324,-0.77371 1.53359,-0.67835 6.61508,-3.49403 6.53355,-3.62631 10.4606,-3.70168 5.52371,-0.10458 9.13696,3.77633 2.32576,2.49805 2.93489,5.96979 0.60758,3.51482 -0.98755,7.12345 -1.61743,3.6294 -5.38683,7.13882 -6.15592,5.73136 -11.76885,5.91901 -5.63523,0.20841 -9.98605,-4.15165 l 6.33206,-6.43663 q 2.77031,2.12581 5.19299,1.91047 2.42114,-0.17227 5.20915,-2.768 2.87723,-2.67878 3.40484,-5.3768 0.34225,-1.73433 -0.84139,-3.00567 -1.07983,-1.15981 -2.82954,-1.07136 -2.22502,0.11459 -8.10176,3.46249 -5.87673,3.3479 -9.31617,4.26005 -3.44098,0.95522 -6.70737,0.0408 -3.26792,-0.87141 -6.15436,-3.97167 -2.61649,-2.81032 -3.33944,-6.71737 -0.72295,-3.90706 1.01062,-7.7695 1.75433,-3.84013 6.01442,-7.8064 6.20053,-5.77288 12.18186,-6.01206 6.00209,-0.21688 11.75729,4.66772 z"
       id="path22791" />
    <path
       d="m 738.06456,834.82761 q -2.19491,-3.03851 -1.59822,-6.7402 0.58984,-3.65913 3.60364,-5.8362 3.0385,-2.19491 6.74019,-1.59822 3.67698,0.61454 5.85405,3.62834 2.17706,3.0138 1.58723,6.67294 -0.59669,3.70168 -3.6352,5.89659 -3.0138,2.17707 -6.67294,1.58724 -3.68384,-0.57199 -5.87875,-3.61049 z"
       id="path22793" />
    <path
       d="m 689.58535,857.16359 -9.01026,1.73235 q -1.71914,-7.38799 0.70618,-12.75972 2.41307,-5.33041 8.73495,-8.75942 7.82199,-4.24267 15.74948,-1.64351 7.94201,2.62594 12.96929,11.89447 5.31787,9.80428 3.19,17.96149 -2.11334,8.18401 -10.36393,12.65915 -7.20588,3.90849 -14.01642,2.09024 -4.04456,-1.06507 -7.94117,-5.05321 l 6.8317,-6.13233 q 2.35287,2.67602 5.5352,3.23804 3.15555,0.57655 6.31649,-1.13796 4.36639,-2.36834 5.39875,-6.98452 1.00558,-4.60165 -2.8012,-11.62002 -4.03925,-7.44696 -8.43252,-9.15493 -4.39327,-1.70798 -8.67929,0.61677 -3.16095,1.71451 -4.34817,4.95861 -1.18722,3.24409 0.16092,8.0945 z"
       id="path22795" />
    <path
       d="m 670.39415,848.4929 17.09183,41.27674 -17.5412,7.26344 q -6.61667,2.73982 -10.06756,2.84942 -3.46739,0.14941 -6.44692,-1.94819 -2.97952,-2.09759 -4.49517,-5.75788 -1.92371,-4.64574 -0.45172,-8.8175 1.48364,-4.1436 6.5913,-7.18212 -3.35587,-0.45749 -5.88268,-1.6211 -2.55497,-1.15194 -7.53317,-4.73079 l -8.37435,-5.96569 9.96723,-4.12723 9.74455,6.48679 q 5.20345,3.48557 6.89899,4.23477 1.7072,0.77735 3.21707,0.67988 1.52154,-0.0693 4.39345,-1.25851 l 1.68936,-0.69953 -7.13519,-17.23149 z m 1.52918,27.27101 -6.16617,2.55328 q -5.99724,2.48333 -7.27965,3.60806 -1.28241,1.12472 -1.6141,2.71335 -0.33169,1.58863 0.43779,3.44693 0.86275,2.08355 2.51364,2.88421 1.63439,0.84049 3.80153,0.33892 1.07191,-0.27893 6.14,-2.37752 l 6.50404,-2.69319 z"
       id="path22797" />
    <path
       d="m 623.07137,866.51473 5.44326,17.99758 23.15401,20.02742 -10.12181,3.06128 -15.18032,-13.87467 -4.74245,19.90019 -9.9468,3.00835 8.21472,-29.57838 -5.42561,-17.93924 z"
       id="path22799" />
    <path
       d="m 598.00183,873.82492 8.75528,43.80918 -14.19465,2.83681 q -8.06854,1.6125 -10.65038,1.44479 -3.9624,-0.23366 -7.16541,-3.04309 -3.19704,-2.77954 -4.24218,-8.00915 -0.80625,-4.03427 0.1086,-7.07619 0.91484,-3.04192 2.86946,-5.07963 1.9307,-2.00186 4.16009,-2.97571 3.04223,-1.26061 9.04881,-2.46103 l 5.76751,-1.15264 -3.30264,-16.52556 z m -1.57134,38.16586 -2.48445,-12.43153 -4.84112,0.9675 q -5.22961,1.04514 -6.85537,2.08482 -1.62577,1.03968 -2.31928,2.70106 -0.7234,1.66734 -0.33521,3.60977 0.47778,2.39068 2.19286,3.66392 1.71508,1.27325 3.94433,1.23174 1.64355,-0.0177 6.4249,-0.97325 z"
       id="path22801" />
    <path
       d="m 550.83296,881.9802 3.97942,36.9039 13.17997,-1.42122 0.81026,7.51409 -35.29807,3.80627 -0.81026,-7.5141 13.14967,-1.41795 -3.97943,-36.9039 z"
       id="path22803" />
    <path
       d="m 529.83054,906.53116 q 0.0635,6.82597 -1.93517,11.47686 -1.49192,3.42716 -4.08739,6.16363 -2.62595,2.73675 -5.75249,4.07628 -4.15839,1.80625 -9.61307,1.85696 -9.87328,0.0918 -15.84201,-5.97833 -5.9992,-6.06984 -6.10063,-16.97921 -0.10058,-10.81795 5.72378,-16.99772 5.82465,-6.1493 15.66746,-6.24082 9.9647,-0.0926 15.90239,5.91682 5.93797,6.03994 6.03713,16.70553 z m -9.29146,0.39114 q -0.0706,-7.5878 -3.6115,-11.48625 -3.54067,-3.86797 -8.93441,-3.81783 -5.39374,0.0502 -8.80122,3.95225 -3.43766,3.93285 -3.36542,11.70349 0.0714,7.67922 3.48904,11.42644 3.38718,3.7475 8.96375,3.69565 5.57658,-0.0518 8.95387,-3.92319 3.37757,-3.84087 3.30589,-11.55056 z"
       id="path22805" />
    <path
       d="m 483.03532,884.44769 -4.2211,44.47563 -14.41059,-1.36768 q -8.19128,-0.77742 -10.61566,-1.68096 -3.72758,-1.36396 -5.98671,-4.97623 -2.26201,-3.58193 -1.75813,-8.89109 0.38871,-4.09565 2.14018,-6.74566 1.75146,-2.65002 4.20976,-4.03911 2.42508,-1.36163 4.8404,-1.65279 3.2763,-0.33189 9.37426,0.24686 l 5.85525,0.55571 1.59227,-16.77696 z m -12.4871,36.0995 1.1978,-12.62064 -4.91476,-0.46645 q -5.30917,-0.50388 -7.16534,0.024 -1.85617,0.5279 -2.99842,1.91945 -1.17258,1.38866 -1.35973,3.36064 -0.23035,2.42705 1.04581,4.13995 1.27617,1.71291 3.42308,2.31462 1.57912,0.45599 6.43322,0.91668 z"
       id="path22807" />
    <path
       d="m 436.78823,924.53999 -8.85011,-1.74458 4.67972,-23.73984 q 1.11394,-5.65091 1.11511,-7.39009 -0.0376,-2.8029 -1.8363,-4.86581 -1.83446,-2.03891 -5.54194,-2.76975 -3.76728,-0.74262 -5.98141,0.40502 -2.22002,1.17754 -3.05074,3.34335 -0.83073,2.16581 -1.85626,7.36824 l -4.77992,24.24812 -8.85012,-1.74458 4.53827,-23.02226 q 1.55598,-7.89335 2.91599,-11.01089 1.36001,-3.11754 3.74549,-4.97687 2.35557,-1.86522 5.84989,-2.57414 3.48843,-0.67902 8.69086,0.34651 6.2788,1.23771 9.25489,3.3153 2.94029,2.10159 4.37011,4.77513 1.42391,2.70344 1.52092,5.36273 0.12444,3.9382 -1.32545,11.29336 z"
       id="path22809" />
    <path
       d="m 404.81872,872.41423 -13.19748,42.68168 -8.38494,-2.59269 -8.6553,-33.9044 -8.81333,28.50298 -8.00646,-2.47566 13.19749,-42.68168 8.64697,2.67371 8.60033,33.15375 8.60627,-27.83334 z"
       id="path22811" />
    <path
       d="m 365.42257,859.93034 -17.65651,41.03836 -8.28605,-3.56503 7.84064,-18.22372 -24.58071,11.02141 -11.14138,-4.79352 22.32949,-9.33595 -5.51278,-32.06373 10.72148,4.61286 2.99507,24.11321 9.6692,-3.96783 5.3355,-12.40109 z"
       id="path22813" />
    <path
       d="m 322.65593,857.1383 -8.07857,-3.53469 q 1.46294,-4.24421 0.37155,-7.22735 -1.11799,-2.99799 -4.70979,-5.00408 -3.80464,-2.12497 -6.61185,-1.59853 -2.84869,0.53818 -4.05234,2.69326 -0.77272,1.3835 -0.48289,2.80197 0.24835,1.43022 1.86918,3.27793 1.11603,1.25162 5.35456,5.22458 5.45546,5.10641 6.73167,8.82107 1.79374,5.2254 -0.79189,9.85482 -1.66431,2.97986 -4.78189,4.62445 -3.15905,1.65634 -7.083,1.24491 -3.95057,-0.42629 -8.44696,-2.93762 -7.34322,-4.10134 -9.24338,-9.38618 -1.92677,-5.2997 0.88869,-10.77811 l 8.06852,4.05266 q -1.17366,3.28881 -0.22563,5.52867 0.90657,2.25161 4.2323,4.1091 3.43216,1.91693 6.16196,1.59159 1.75572,-0.20618 2.60273,-1.72271 0.77272,-1.38351 0.15188,-3.02176 -0.79151,-2.08264 -5.78053,-6.64928 -4.98901,-4.56664 -6.91212,-7.56054 -1.96457,-2.98215 -2.09602,-6.37158 -0.17291,-3.37769 1.89262,-7.07591 1.87235,-3.35234 5.36935,-5.23879 3.49701,-1.88645 7.70499,-1.42109 4.19313,0.49196 9.27485,3.3302 7.39644,4.13106 9.45864,9.75074 2.04734,5.64629 -0.83663,12.62227 z"
       id="path22815" />
    <path
       d="m 253.40478,822.24409 q 2.2189,-3.02103 5.92519,-3.58838 3.6637,-0.56084 6.66017,1.64002 3.02102,2.21891 3.58838,5.9252 0.5428,3.68825 -1.65806,6.68472 -2.20087,2.99647 -5.86456,3.55731 -3.70629,0.56735 -6.72732,-1.65155 -2.99647,-2.20086 -3.55731,-5.86455 -0.5854,-3.68174 1.63351,-6.70277 z"
       id="path22817" />
    <path
       d="m 217.27703,782.95205 -4.41255,-8.04458 q 6.50456,-3.90238 12.36127,-3.24163 5.81363,0.66176 11.01645,5.62714 6.43739,6.1436 6.3951,14.48619 -0.0633,8.36464 -7.34307,15.99251 -7.70054,8.06878 -16.11723,8.54553 -8.43773,0.4988 -15.22785,-5.98143 -5.93034,-5.65969 -6.28873,-12.69965 -0.22685,-4.17629 2.37385,-9.10834 l 7.93222,4.62143 q -1.82534,3.06026 -1.38415,6.26158 0.41913,3.18029 3.02054,5.66297 3.59348,3.42948 8.3038,2.99617 4.68828,-0.45436 10.20069,-6.23037 5.84905,-6.12875 6.12715,-10.83413 0.2781,-4.70539 -3.24924,-8.07174 -2.60141,-2.48269 -6.05328,-2.61763 -3.45188,-0.13494 -7.65497,2.63598 z"
       id="path22819" />
    <path
       d="m 219.64538,762.02446 -34.03026,28.94549 -12.30084,-14.4617 q -4.63997,-5.45505 -5.80437,-8.70541 -1.20736,-3.25383 -0.12649,-6.73366 1.08086,-3.47983 4.09855,-6.04662 3.83014,-3.25785 8.25236,-3.1386 4.39902,0.139 8.85967,4.06626 -0.59554,-3.33414 -0.26443,-6.09623 0.31136,-2.7853 2.18786,-8.6222 l 3.10465,-9.80206 6.98956,8.2174 -3.17961,11.26609 q -1.71855,6.0226 -1.91065,7.8663 -0.21531,1.86345 0.34127,3.27037 0.53337,1.42667 2.54732,3.7944 l 1.18467,1.39278 14.20635,-12.08366 z m -25.48258,9.83283 -4.32405,-5.08365 q -4.20559,-4.94437 -5.66989,-5.81925 -1.46429,-0.87489 -3.078,-0.70252 -1.61371,0.17237 -3.14576,1.47551 -1.71776,1.46109 -1.97257,3.27812 -0.29776,1.81355 0.84529,3.72182 0.59474,0.93439 4.14876,5.11273 l 4.56098,5.36221 z"
       id="path22821" />
    <path
       d="m 187.94448,722.53621 -15.43666,10.73552 -11.89749,28.20737 -6.03765,-8.68156 8.50812,-18.72326 -20.39201,1.63535 -5.93325,-8.53144 30.66945,-1.32183 15.38662,-10.70073 z"
       id="path22823" />
    <path
       d="m 173.24535,700.95272 -38.88883,21.98996 -7.12499,-12.60041 q -4.04999,-7.16234 -4.69639,-9.66757 -1.0146,-3.83742 0.65492,-7.75722 1.64299,-3.90481 6.28525,-6.5298 3.58117,-2.025 6.75667,-2.10517 3.17549,-0.0802 5.72143,1.14091 2.50441,1.20954 4.12537,3.02366 2.14707,2.49688 5.16206,7.82884 l 2.895,5.11974 14.66952,-8.29498 z m -36.75008,10.41792 11.0353,-6.23999 -2.43,-4.2974 q -2.62499,-4.64225 -4.12011,-5.86236 -1.49513,-1.2201 -3.28996,-1.3605 -1.80983,-0.16692 -3.53409,0.80807 -2.12218,1.2 -2.79659,3.22678 -0.67441,2.02677 0.0607,4.13173 0.52973,1.55594 2.92972,5.80028 z"
       id="path22825" />
    <path
       d="m 150.74264,658.70213 -33.79362,15.35333 5.48333,12.06915 -6.8808,3.12614 -14.68525,-32.32313 6.8808,-3.12613 5.47073,12.0414 33.79362,-15.35333 z"
       id="path22827" />
    <path
       d="m 120.8185,646.43577 q -6.46462,2.1924 -11.50709,1.74648 -3.72169,-0.34679 -7.13194,-1.95766 -3.420047,-1.63972 -5.669136,-4.19143 -3.014762,-3.38614 -4.766724,-8.55206 -3.17115,-9.35061 0.730919,-16.91673 3.892281,-7.59497 14.224131,-11.09889 10.24527,-3.47456 17.9351,0.12811 7.66097,3.61247 10.82233,12.93422 3.20051,9.43719 -0.65362,16.95487 -3.883,7.52746 -13.98397,10.95309 z m -3.27378,-8.7044 q 7.18611,-2.43709 9.78348,-7.01857 2.56851,-4.57169 0.83612,-9.67989 -1.73239,-5.10821 -6.50358,-7.12636 -4.80985,-2.03724 -12.16913,0.45858 -7.27269,2.46645 -9.764911,6.88355 -2.502005,4.38824 -0.710893,9.6696 1.791114,5.28137 6.523664,7.28045 4.70369,2.00888 12.00525,-0.46736 z"
       id="path22829" />
    <path
       d="m 127.18771,595.08082 -43.600649,9.74079 -3.15612,-14.12709 q -1.794004,-8.03013 -1.684543,-10.61509 0.144258,-3.96667 2.880756,-7.23221 2.706756,-3.25889 7.911472,-4.42167 4.015067,-0.897 7.076839,-0.051 3.061772,0.84603 5.143035,2.7542 2.04488,1.88508 3.06875,4.09194 1.32888,3.01304 2.66442,8.99103 l 1.28238,5.74006 16.4469,-3.67439 z m -38.191584,-0.71045 12.372354,-2.76409 -1.0764,-4.81808 q -1.162784,-5.20472 -2.238856,-6.80663 -1.076072,-1.60191 -2.752659,-2.25779 -1.683233,-0.68562 -3.616413,-0.25373 -2.379298,0.53155 -3.613553,2.2749 -1.234254,1.74335 -1.142489,3.9711 0.05474,1.64273 1.117858,6.40133 z"
       id="path22831" />
    <path
       d="m 74.747771,563.34481 -1.04726,-8.95943 24.033058,-2.80921 q 5.720711,-0.66869 7.376821,-1.19977 2.65693,-0.89352 4.07049,-3.23716 1.37975,-2.37038 0.94103,-6.12365 -0.44579,-3.81381 -2.21591,-5.57055 -1.80039,-1.75319 -4.11651,-1.88133 -2.31612,-0.12813 -7.582809,0.48749 l -24.54762,2.86935 -1.047261,-8.95943 23.306618,-2.72429 q 7.990842,-0.93404 11.375002,-0.59325 3.38416,0.34079 5.88426,2.04288 2.49656,1.67182 4.24074,4.78159 1.71392,3.11331 2.32954,8.38 0.74299,6.35635 -0.32425,9.82542 -1.10104,3.44235 -3.2088,5.62168 -2.13804,2.18287 -4.64008,3.08898 -3.71121,1.32357 -11.15722,2.19393 z"
       id="path22833" />
    <path
       d="m 114.60582,516.95558 -44.67386,0.38128 -0.0749,-8.77631 29.677314,-18.5386 -29.833364,0.25462 -0.07152,-8.38016 44.673867,-0.38128 0.0772,9.05057 -28.978768,18.25836 29.132478,-0.24864 z"
       id="path22835" />
    <path
       d="m 114.55558,475.62912 -44.458591,-4.39692 0.887782,-8.97663 19.742527,1.95252 -17.948967,-20.08774 1.193706,-12.06993 15.660817,18.45278 28.887756,-14.96566 -1.14872,11.61504 -22.073308,10.15807 6.710158,8.01317 13.43462,1.32867 z"
       id="path22837" />
    <path
       d="m 104.26717,434.0467 0.91007,-8.77092 q 4.48809,0.10272 6.99793,-1.84431 2.51591,-1.97688 3.33449,-6.00867 0.86708,-4.27071 -0.48825,-6.78481 -1.37914,-2.55002 -3.79821,-3.04117 -1.55298,-0.3153 -2.8161,0.39223 -1.28691,0.6716 -2.5541,2.77763 -0.85287,1.44385 -3.34841,6.68997 -3.205162,6.75014 -6.355657,9.09573 -4.432251,3.2981 -9.628777,2.24305 -3.34489,-0.67912 -5.859802,-3.14878 -2.538714,-2.50559 -3.340275,-6.36878 -0.795497,-3.89305 0.229237,-8.94025 1.673531,-8.24276 6.130035,-11.66032 4.462569,-3.44743 10.537762,-2.43166 l -1.406555,8.9189 q -3.489962,-0.11774 -5.335353,1.46664 -1.869193,1.54846 -2.627132,5.2816 -0.782194,3.8526 0.358019,6.35412 0.730428,1.60981 2.432738,1.95543 1.552985,0.31531 2.924788,-0.77441 1.743216,-1.38746 4.576055,-7.52908 2.832839,-6.14162 5.099957,-8.88423 2.24333,-2.77854 5.43219,-3.93468 3.16507,-1.19207 7.31632,-0.34924 3.763,0.764 6.62371,3.52155 2.86072,2.75754 3.6973,6.9077 0.80672,4.1441 -0.35141,9.84833 -1.68566,8.3025 -6.41186,11.97627 -4.75606,3.6677 -12.27871,3.04216 z"
       id="path22839" />
    <path
       d="m 116.31359,357.50722 q 3.55713,1.18193 5.23715,4.53395 1.66071,3.31349 0.48839,6.8417 -1.18193,3.55714 -4.53395,5.23716 -3.34241,1.6511 -6.87062,0.47877 -3.52822,-1.17232 -5.18893,-4.48581 -1.68002,-3.35202 -0.49808,-6.90915 1.17232,-3.52821 4.48581,-5.18892 3.3231,-1.68963 6.88023,-0.5077 z"
       id="path22841" />
    <path
       d="m 142.4045,311.0454 6.26642,-6.70207 q 5.73691,4.96243 6.93632,10.73297 1.18502,5.72991 -1.90934,12.22215 -3.82861,8.03278 -11.768,10.59535 -7.9669,2.54945 -17.4852,-1.9872 -10.06848,-4.79887 -13.14729,-12.64673 -3.10633,-7.86098 0.93207,-16.33391 3.52705,-7.40006 10.10382,-9.9369 3.89707,-1.51845 9.39433,-0.58627 l -1.91606,8.97811 q -3.47699,-0.77949 -6.38089,0.63843 -2.89078,1.39041 -4.43796,4.63653 -2.13721,4.48405 -0.25599,8.82409 1.89434,4.31253 9.10183,7.74779 7.64764,3.64505 12.20494,2.44128 4.55729,-1.20377 6.65516,-5.60529 1.54718,-3.24613 0.59846,-6.56781 -0.94872,-3.32169 -4.89262,-6.45052 z"
       id="path22843" />
    <path
       d="m 163.00919,306.75876 -38.17673,-23.20423 9.86101,-16.22381 q 3.71964,-6.11974 6.43909,-8.247 2.70924,-2.16913 6.35244,-2.23712 3.64319,-0.068 7.02858,1.98967 4.29683,2.61167 5.57396,6.84714 1.25109,4.21964 -1.0746,9.68883 2.97783,-1.6136 5.70396,-2.16767 2.74196,-0.58012 8.87284,-0.63387 l 10.2811,-0.13453 -5.6032,9.21866 -11.69447,0.52365 q -6.2575,0.26209 -8.06811,0.65938 -1.83665,0.38147 -2.99725,1.35217 -1.18663,0.95486 -2.80111,3.61109 l -0.9497,1.56248 15.93736,9.6869 z m -17.34588,-21.09897 3.46639,-5.70307 q 3.37142,-5.54683 3.74157,-7.21193 0.37016,-1.66511 -0.30082,-3.14279 -0.67097,-1.47769 -2.38971,-2.52235 -1.92706,-1.1713 -3.73206,-0.84191 -1.81521,0.28751 -3.26734,1.97256 -0.70002,0.85835 -3.54911,5.5458 l -3.65633,6.01557 z"
       id="path22845" />
    <path
       d="m 190.51653,264.24238 -15.04246,-11.28125 -30.51714,-2.43109 6.34456,-8.45986 20.44839,2.19364 -7.96039,-18.84517 6.23485,-8.31358 10.89228,28.70053 14.9937,11.24468 z"
       id="path22847" />
    <path
       d="m 206.38539,243.50308 -32.99131,-30.1243 9.7606,-10.68954 q 5.54813,-6.07616 7.72822,-7.46945 3.33177,-2.15743 7.57638,-1.7894 4.2221,0.34748 8.16036,3.94349 3.03808,2.77407 4.10159,5.76725 1.06351,2.99319 0.69454,5.79259 -0.37092,2.75636 -1.59114,4.86102 -1.70557,2.81697 -5.83584,7.34034 l -3.96589,4.34333 12.44488,11.36339 z m -21.32785,-31.68951 9.36179,8.54823 3.32888,-3.6457 q 3.59601,-3.93825 4.29078,-5.73862 0.69477,-1.80037 0.27017,-3.5499 -0.40406,-1.77203 -1.86684,-3.10769 -1.80034,-1.64389 -3.93635,-1.65472 -2.13601,-0.0108 -3.90807,1.34235 -1.31412,0.98724 -4.6019,4.58793 z"
       id="path22849" />
    <path
       d="m 239.583,209.0167 -25.01284,-27.42429 -9.79439,8.93316 -5.09292,-5.58393 26.23095,-23.92443 5.09292,5.58393 -9.77187,8.91262 25.01284,27.42429 z"
       id="path22851" />
    <path
       d="m 242.07137,176.75045 q -4.06743,-5.48216 -5.18771,-10.41879 -0.81001,-3.64898 -0.32133,-7.38876 0.51316,-3.75793 2.25317,-6.6806 2.29975,-3.90715 6.68058,-7.15745 7.92955,-5.88324 16.32727,-4.48666 8.4222,1.37842 14.92281,10.14008 6.44613,8.68824 5.37245,17.11201 -1.09184,8.39931 -8.99691,14.26438 -8.00297,5.93771 -16.3399,4.57192 -8.35509,-1.39026 -14.71043,-9.95613 z m 7.28296,-5.78297 q 4.52137,6.094 9.67827,7.16295 5.13874,1.04448 9.47062,-2.16951 4.33188,-3.21399 4.79135,-8.37404 0.46579,-5.20269 -4.16454,-11.44354 -4.57584,-6.16742 -9.54406,-7.18664 -4.94373,-1.03737 -9.42246,2.28557 -4.47872,3.32294 -4.93188,8.44036 -0.47131,5.09295 4.1227,11.28485 z"
       id="path22853" />
    <path
       d="m 292.91329,167.0865 -22.60421,-38.53503 12.48577,-7.32402 q 7.09718,-4.16312 9.59183,-4.84919 3.82084,-1.07536 7.76664,0.53176 3.93039,1.58083 6.62871,6.18085 2.08156,3.54859 2.2121,6.72241 0.13054,3.17383 -1.04998,5.73882 -1.16965,2.52329 -2.95782,4.17283 -2.4625,2.18641 -7.74596,5.28562 l -5.07316,2.97587 8.52669,14.53606 z m -10.9997,-36.58016 6.41429,10.9349 4.25831,-2.49787 q 4.60002,-2.69832 5.79625,-4.21261 1.19623,-1.5143 1.30813,-3.31113 0.13819,-1.81225 -0.86405,-3.52083 -1.23351,-2.10287 -3.27073,-2.74504 -2.03723,-0.64217 -4.13025,0.12628 -1.54734,0.55435 -5.75307,3.02138 z"
       id="path22855" />
    <path
       d="m 307.09912,107.45698 8.21033,-3.73612 10.02189,22.02366 q 2.38556,5.2424 3.3975,6.65687 1.663,2.25656 4.32658,2.88597 2.6787,0.58904 6.11816,-0.97609 3.49494,-1.59037 4.62642,-3.8128 1.11886,-2.25016 0.5328,-4.49457 -0.58606,-2.24441 -2.78229,-7.07075 l -10.23646,-22.495193 8.21033,-3.736117 9.71895,21.35795 q 3.33222,7.32273 4.04231,10.64906 0.7101,3.32632 -0.14619,6.22708 -0.82856,2.88812 -3.25623,5.49949 -2.44029,2.58364 -7.26663,4.77987 -5.8249,2.65062 -9.45415,2.69502 -3.61414,0.004 -6.33351,-1.33658 -2.73198,-1.36834 -4.35961,-3.4736 -2.39476,-3.1289 -5.49978,-9.95235 z"
       id="path22857" />
    <path
       d="m 363.45268,131.22788 -14.04465,-42.410457 8.33166,-2.759113 26.7367,22.57371 -9.37907,-28.321861 7.95558,-2.63457 14.04465,42.410461 -8.59203,2.84534 -26.25598,-21.99456 9.15872,27.65648 z"
       id="path22859" />
    <path
       d="m 402.77802,118.52739 -9.50452,-43.652763 8.81392,-1.919057 4.22063,19.384685 13.58589,-23.261698 11.85116,-2.580354 -12.73482,20.581324 23.13264,22.876933 -11.40451,2.48311 -16.46055,-17.873656 -5.55802,8.851306 2.8721,13.19111 z"
       id="path22861" />
    <path
       d="m 439.31798,95.633844 8.64694,-1.728498 q 1.23116,4.317146 3.83418,6.137724 2.63335,1.81752 6.72668,1.40525 4.33591,-0.4367 6.33579,-2.475842 2.02715,-2.072514 1.77979,-4.528516 -0.15881,-1.576692 -1.2087,-2.573579 -1.02262,-1.030262 -3.40947,-1.616837 -1.63166,-0.386977 -7.38153,-1.216781 -7.39657,-1.062123 -10.57002,-3.37656 -4.46286,-3.256572 -4.99423,-8.532428 -0.34203,-3.395954 1.27197,-6.529485 1.64127,-3.166906 5.09372,-5.076686 3.48278,-1.912834 8.60703,-2.428936 8.3686,-0.842863 12.95274,2.401494 4.61445,3.241303 5.44358,9.34477 l -8.93532,1.298114 q -0.92119,-3.368251 -2.98105,-4.661588 -2.03259,-1.326712 -5.82272,-0.94498 -3.91141,0.393947 -5.96299,2.223892 -1.32126,1.174446 -1.14719,2.902744 0.1588,1.576692 1.60592,2.5642 1.84151,1.254072 8.54659,2.140811 6.70509,0.88674 9.99612,2.239848 3.31829,1.319734 5.36702,4.023107 2.07601,2.669998 2.50049,6.884619 0.38479,3.820447 -1.40176,7.369529 -1.78655,3.54908 -5.50273,5.57731 -3.71923,1.99791 -9.51055,2.58119 -8.42924,0.84897 -13.33796,-2.57709 -4.91178,-3.45639 -6.54234,-10.826796 z"
       id="path22863" />
  </g>
</svg>
