<?xml version="1.0" encoding="UTF-8" standalone="no"?>
<svg
   width="1000"
   height="1000"
   version="1.1"
   id="svg22"
   sodipodi:docname="Profile.svg"
   inkscape:version="1.1.1 (3bf5ae0d25, 2021-09-20)"
   xmlns:inkscape="http://www.inkscape.org/namespaces/inkscape"
   xmlns:sodipodi="http://sodipodi.sourceforge.net/DTD/sodipodi-0.dtd"
   xmlns="http://www.w3.org/2000/svg"
   xmlns:svg="http://www.w3.org/2000/svg">
  <defs
     id="defs26">
    <pattern
       id="EMFhbasepattern"
       patternUnits="userSpaceOnUse"
       width="6"
       height="6"
       x="0"
       y="0" />
  </defs>
  <sodipodi:namedview
     id="namedview24"
     pagecolor="#ffffff"
     bordercolor="#666666"
     borderopacity="1.0"
     inkscape:pageshadow="2"
     inkscape:pageopacity="0.0"
     inkscape:pagecheckerboard="0"
     showgrid="false"
     inkscape:zoom="1.746"
     inkscape:cx="776.91867"
     inkscape:cy="514.89118"
     inkscape:window-width="3840"
     inkscape:window-height="2054"
     inkscape:window-x="-11"
     inkscape:window-y="-11"
     inkscape:window-maximized="1"
     inkscape:current-layer="svg22" />
  <mask
     id="_mask">
    <circle
       cx="500"
       cy="500"
       r="450"
       fill="white"
       stroke="none"
       id="circle2" />
  </mask>
  <path
     id="path-0"
     d="M 504.28 105.614 C 804.145 105.541 991.639 430.111 841.768 689.836 C 691.898 949.563 317.067 949.655 167.072 690 C 26.805 447.185 181.324 140.169 459.907 108.16 Z"
     style="fill: none;" />
  <circle
     cx="500"
     cy="500"
     r="450"
     fill="rgb(255,255,255)"
     id="circle6" />
  <circle
     cx="500"
     cy="500"
     r="450"
     fill="rgb(255,255,255)"
     mask="url(#_mask)"
     stroke-width="130"
     stroke="rgb(0,0,0)"
     stroke-linejoin="miter"
     stroke-linecap="square"
     stroke-miterlimit="3"
     id="circle8" />
  <text
     xml:space="preserve"
     style="font-style:normal;font-variant:normal;font-weight:900;font-stretch:normal;font-size:192px;line-height:1.25;font-family:Mont;-inkscape-font-specification:'Mont, Heavy';font-variant-ligatures:normal;font-variant-caps:normal;font-variant-numeric:normal;font-variant-east-asian:normal;fill:#000000;fill-opacity:1;stroke:none"
     x="383.73425"
     y="517.75488"
     id="text3296"><tspan
       sodipodi:role="line"
       id="tspan3294"
       x="383.73425"
       y="517.75488" /></text>
  <g
     aria-label="№ "
     id="text8871"
     style="font-weight:900;font-size:14.75px;line-height:125%;font-family:'Mont Heavy DEMO';letter-spacing:0px;word-spacing:0px"
     transform="translate(-2)">
    <path
       d="M 466.40609,506.91318 371.20617,376.24663 h -60.10661 v 248.63978 h 66.82661 V 490.1132 l 98.55991,134.77321 H 533.2327 V 376.24663 H 466.40609 Z M 621.71262,389.68662 c -40.31996,0 -69.06661,27.25331 -69.06661,65.70661 0,38.07996 28.74665,65.33327 69.06661,65.33327 40.6933,0 69.06661,-27.25331 69.06661,-65.33327 0.37333,-38.4533 -28.74664,-65.70661 -69.06661,-65.70661 z m 0,87.35992 c -12.31999,0 -21.65331,-8.95999 -21.65331,-21.65331 0,-13.06666 8.95999,-22.39998 21.65331,-22.39998 13.06666,0 21.65332,9.33332 21.65332,22.39998 0,12.69332 -8.58666,21.65331 -21.65332,21.65331 z M 559.73934,597.6331 H 684.05923 V 544.61982 H 559.73934 Z"
       id="path22038" />
  </g>
</svg>
