<?xml version="1.0" encoding="utf-8"?>
<!-- Generator: Adobe Illustrator 25.4.1, SVG Export Plug-In . SVG Version: 6.00 Build 0)  -->
<svg version="1.1" id="Ebene_1" xmlns="http://www.w3.org/2000/svg" xmlns:xlink="http://www.w3.org/1999/xlink" x="0px"
	y="0px" viewBox="0 0 128 128" style="enable-background:new 0 0 128 128;" xml:space="preserve">
	<g id="Etherscan">
		<g id="Group_3">
			<path id="Path_1" class="st9" d="M42.93061,62.22572c0.00031-1.68809,1.36903-3.05632,3.05713-3.05602
			c0.00456,0,0.00913,0.00002,0.0137,0.00003l5.09111,0.01665c1.69039,0,3.06073,1.37034,3.06073,3.06073l0,0v19.25211
			c0.5734-0.16995,1.30725-0.35117,2.11475-0.54133c1.15182-0.271,1.96595-1.29869,1.96621-2.48197V54.59676
			c0-1.69049,1.37024-3.06099,3.06073-3.06132h5.10658c1.69025,0.00033,3.0604,1.37046,3.06072,3.06072v22.16368
			c0,0,1.27753-0.51695,2.5212-1.04223c0.94478-0.39959,1.55898-1.32545,1.55978-2.35125V46.94465
			c0-1.69016,1.36997-3.0604,3.06013-3.06073h5.1012c1.68924,0.00164,3.05776,1.3715,3.05776,3.06073v21.75786
			c4.42263-3.20513,8.90469-7.06029,12.46157-11.69567c1.04817-1.36663,1.34177-3.16759,0.78197-4.79639
			C91.47273,33.4147,70.9396,23.47392,52.14386,30.00707c-18.79575,6.53316-28.73654,27.06628-22.20339,45.86204
			c0.73723,2.12099,1.67112,4.1684,2.78948,6.11555c0.88841,1.53156,2.58363,2.40977,4.34717,2.25202
			c0.96498-0.08497,2.16645-0.20499,3.59491-0.37257c1.28584-0.14783,2.25678-1.23581,2.25797-2.53011V62.22572" fill="#000000" />
			<path id="Path_2" class="st10" d="M42.82188,93.10099c16.09654,11.71002,38.63822,8.15405,50.34824-7.9425
			c4.48344-6.16291,6.89789-13.58839,6.89647-21.20959c0-0.83188-0.03862-1.6507-0.09387-2.46713
			C86.80344,81.12308,62.48756,90.30526,42.82188,93.10099" fill="#000000" />
		</g>
	</g>
</svg>