<svg xmlns="http://www.w3.org/2000/svg" xmlns:xlink="http://www.w3.org/1999/xlink" version="1.1" height='1000px' width='1000px' viewBox='0 0 1000 1000'>
    <style type="text/css">.skin_fill{fill:#F8AFF8;} .skin_outline{fill:#5E4F65;} .skin_dark{fill:#A885A3;} .skin_halftone{fill:#72576F;} .skin_freckles{fill:#A982A1;} </style>
    <style type="text/css">.hair_fill{fill:#FF00FF;} .hair_outline{fill:#A2468B;} .hair_shadow{fill:#612052;} .hair_brow{fill:#B04E97;} </style>
    <style type="text/css">.eye_iris{fill:#318CE7;} </style>
    <style type="text/css">.bg_color{fill:#4549C3;} .bg_stop_1{stop-color:#4549C3;} .bg_stroke_1{stroke:#4549C3;} .bg_shape{fill:#66CCC9;} .bg_stop_2{stop-color:#66CCC9;} .bg_stroke_2{stroke:#66CCC9;} .bg_halftone{fill:#CF00CF;} .bg_stop_3{stop-color:#CF00CF;} .bg_stroke_3{stroke:#CF00CF;} </style>
    <pattern id="backdrop_e" width="28.8" height="28.8" y="1000" overflow="visible" patternUnits="userSpaceOnUse" viewBox="1.4 -30.2 28.8 28.8">
        <defs>
            <path id="backdrop_a" d="M1.4-30.2h28.8v28.8H1.4z" />
        </defs>
        <clipPath id="backdrop_b">
            <use overflow="visible" xlink:href="#backdrop_a" />
        </clipPath>
        <g class="bg_halftone" clip-path="url(#backdrop_b)">
            <path d="M30.2 0c.8 0 1.4-.6 1.4-1.4s-.6-1.4-1.4-1.4-1.4.6-1.4 1.4c0 .8.6 1.4 1.4 1.4zM15.8 0c.8 0 1.4-.6 1.4-1.4s-.6-1.4-1.4-1.4c-.8 0-1.4.6-1.4 1.4 0 .8.6 1.4 1.4 1.4zM30.2-14.4c.8 0 1.4-.6 1.4-1.4s-.6-1.4-1.4-1.4-1.4.6-1.4 1.4c0 .8.6 1.4 1.4 1.4zM15.8-14.4c.8 0 1.4-.6 1.4-1.4s-.6-1.4-1.4-1.4c-.8 0-1.4.6-1.4 1.4 0 .8.6 1.4 1.4 1.4zM8.6-7.2c.8 0 1.4-.6 1.4-1.4S9.4-10 8.6-10c-.8 0-1.4.6-1.4 1.4 0 .8.6 1.4 1.4 1.4zM23-7.2c.8 0 1.4-.6 1.4-1.4S23.8-10 23-10s-1.4.6-1.4 1.4.6 1.4 1.4 1.4zM8.6-21.6c.8 0 1.4-.6 1.4-1.4s-.6-1.4-1.4-1.4c-.8 0-1.4.6-1.4 1.4 0 .8.6 1.4 1.4 1.4zM23-21.6c.8 0 1.4-.6 1.4-1.4s-.6-1.4-1.4-1.4-1.4.6-1.4 1.4c0 .8.6 1.4 1.4 1.4z" />
            <g>
                <path d="M1.4 0c.8 0 1.4-.6 1.4-1.4s-.6-1.4-1.4-1.4C.6-2.9 0-2.2 0-1.4 0-.6.6 0 1.4 0zM1.4-14.4c.8 0 1.4-.6 1.4-1.4s-.6-1.4-1.4-1.4-1.4.6-1.4 1.4.6 1.4 1.4 1.4z" />
            </g>
            <g>
                <path d="M30.2-28.8c.8 0 1.4-.6 1.4-1.4s-.6-1.4-1.4-1.4-1.4.6-1.4 1.4c0 .8.6 1.4 1.4 1.4zM15.8-28.8c.8 0 1.4-.6 1.4-1.4s-.6-1.4-1.4-1.4-1.4.6-1.4 1.4c0 .8.6 1.4 1.4 1.4z" />
            </g>
            <path d="M1.4-28.8c.8 0 1.4-.6 1.4-1.4s-.6-1.4-1.4-1.4C.6-31.7 0-31 0-30.2c0 .8.6 1.4 1.4 1.4z" />
        </g>
    </pattern>
    <defs>
        <path id="backdrop_c" d="M0 0h1000v1000H0z" />
    </defs>
    <use class="bg_color" overflow="visible" xlink:href="#backdrop_c" />
    <clipPath id="backdrop_d">
        <use overflow="visible" xlink:href="#backdrop_c" />
    </clipPath>
    <path fill="none" class="bg_stroke_3" stroke-miterlimit="10" d="M587.7 511.4h450.6M584.7 544H867M611.8 545.8l182.1 182.1h85.5" clip-path="url(#backdrop_d)" />
    <path class="bg_halftone" d="M884.8 727.9c0-7.1-10.8-7.1-10.8 0s10.8 7.1 10.8 0z" clip-path="url(#backdrop_d)" />
    <path fill="none" class="bg_stroke_2" stroke-miterlimit="10" d="M766.9 544l36.9 36.9H1016" clip-path="url(#backdrop_d)" />
    <path fill="none" class="bg_stroke_3" stroke-miterlimit="10" d="M730.8 544l74.7 75.5h102.6M918.9 619.5c0-7.1-10.8-7.1-10.8 0s10.8 7.1 10.8 0z" clip-path="url(#backdrop_d)" />
    <path fill="none" class="bg_stroke_2" stroke-miterlimit="10" d="M754.9 688.9H1071" clip-path="url(#backdrop_d)" />
    <path fill="none" class="bg_stroke_3" stroke-miterlimit="10" d="M742.9 676.9H1071" clip-path="url(#backdrop_d)" />
    <path fill="none" class="bg_stroke_3" stroke-linecap="square" stroke-miterlimit="10" d="M552.2 561.3l153.2 153.2v44.4l278.8 278.8" clip-path="url(#backdrop_d)" />
    <path fill="none" class="bg_stroke_3" stroke-miterlimit="10" d="M412.4 511.4H-38.2M415.4 544H133.1M388.3 545.8L206.2 727.9h-85.5" clip-path="url(#backdrop_d)" />
    <path class="bg_halftone" d="M115.3 727.9c0-7.1 10.8-7.1 10.8 0s-10.8 7.1-10.8 0z" clip-path="url(#backdrop_d)" />
    <path fill="none" class="bg_stroke_2" stroke-miterlimit="10" d="M233.2 544l-36.9 36.9H-88.9" clip-path="url(#backdrop_d)" />
    <path fill="none" class="bg_stroke_3" stroke-miterlimit="10" d="M269.3 544l-74.7 75.5H91.9" clip-path="url(#backdrop_d)" />
    <path fill="none" class="bg_stroke_3" stroke-miterlimit="10" d="M81.2 619.5c0-7.1 10.8-7.1 10.8 0-.1 7.1-10.8 7.1-10.8 0z" clip-path="url(#backdrop_d)" />
    <path fill="none" class="bg_stroke_2" stroke-miterlimit="10" d="M245.2 688.9H-70.9" clip-path="url(#backdrop_d)" />
    <path fill="none" class="bg_stroke_3" stroke-miterlimit="10" d="M257.2 676.9H-70.9" clip-path="url(#backdrop_d)" />
    <path fill="none" class="bg_stroke_3" stroke-linecap="square" stroke-miterlimit="10" d="M447.9 561.3L294.7 714.5v44.4L15.9 1037.7" clip-path="url(#backdrop_d)" />
    <path fill="none" class="bg_stroke_3" stroke-miterlimit="10" d="M584.7 478.7H867M611.8 476.9l182.1-182.1h85.5" clip-path="url(#backdrop_d)" />
    <path class="bg_halftone" d="M884.8 294.8c0 7.1-10.8 7.1-10.8 0s10.8-7.1 10.8 0z" clip-path="url(#backdrop_d)" />
    <path fill="none" class="bg_stroke_2" stroke-miterlimit="10" d="M766.9 478.7l36.9-36.9H1016" clip-path="url(#backdrop_d)" />
    <path fill="none" class="bg_stroke_3" stroke-miterlimit="10" d="M730.8 478.7l74.7-75.5h102.6M918.9 403.2c0 7.1-10.8 7.1-10.8 0s10.8-7.1 10.8 0z" clip-path="url(#backdrop_d)" />
    <path fill="none" class="bg_stroke_2" stroke-miterlimit="10" d="M754.9 333.8H1071" clip-path="url(#backdrop_d)" />
    <path fill="none" class="bg_stroke_3" stroke-miterlimit="10" d="M742.9 345.8H1071" clip-path="url(#backdrop_d)" />
    <path fill="none" class="bg_stroke_3" stroke-linecap="square" stroke-miterlimit="10" d="M552.2 461.4l153.2-153.2v-44.4L984.2-14.9" clip-path="url(#backdrop_d)" />
    <path fill="none" class="bg_stroke_3" stroke-miterlimit="10" d="M415.4 478.7H133.1M388.3 476.9L206.2 294.8h-85.5" clip-path="url(#backdrop_d)" />
    <path class="bg_halftone" d="M115.3 294.8c0 7.1 10.8 7.1 10.8 0s-10.8-7.1-10.8 0z" clip-path="url(#backdrop_d)" />
    <path fill="none" class="bg_stroke_2" stroke-miterlimit="10" d="M233.2 478.7l-36.9-36.9H-88.9" clip-path="url(#backdrop_d)" />
    <path fill="none" class="bg_stroke_3" stroke-miterlimit="10" d="M269.3 478.7l-74.7-75.5H91.9" clip-path="url(#backdrop_d)" />
    <path fill="none" class="bg_stroke_3" stroke-miterlimit="10" d="M81.2 403.2c0 7.1 10.8 7.1 10.8 0-.1-7.1-10.8-7.1-10.8 0z" clip-path="url(#backdrop_d)" />
    <path fill="none" class="bg_stroke_2" stroke-miterlimit="10" d="M245.2 333.8H-70.9" clip-path="url(#backdrop_d)" />
    <path fill="none" class="bg_stroke_3" stroke-miterlimit="10" d="M257.2 345.8H-70.9" clip-path="url(#backdrop_d)" />
    <path fill="none" class="bg_stroke_3" stroke-linecap="square" stroke-miterlimit="10" d="M447.9 461.4L294.7 308.2v-44.4L15.9-14.9" clip-path="url(#backdrop_d)" />
    <pattern id="backdrop_f" patternTransform="matrix(1 0 0 -1 0 -17424.877)" xlink:href="#backdrop_e" />
    <path fill="url(#backdrop_f)" d="M452.1 571.3L304.7 718.6V763L40.1 1027.7H960L695.4 763v-44.4L548 571.3z" clip-path="url(#backdrop_d)" />
    <pattern id="backdrop_g" patternTransform="translate(0 153.625)" xlink:href="#backdrop_e" />
    <path fill="url(#backdrop_g)" d="M452.1 451.4L304.7 304.1v-44.4L40.1-4.9H960L695.4 259.7v44.4L548 451.4z" clip-path="url(#backdrop_d)" />
    <pattern id="ear_i" width="48" height="48" x="250" y="750" overflow="visible" patternUnits="userSpaceOnUse" viewBox="4.8 -52.8 48 48">
        <defs>
            <path id="ear_a" d="M4.8-52.8h48v48h-48z" />
        </defs>
        <clipPath id="ear_b">
            <use overflow="visible" xlink:href="#ear_a" />
        </clipPath>
        <g class="skin_dark" clip-path="url(#ear_b)">
            <path d="M28.8-57.6c2.7 0 4.8 2.1 4.8 4.8S31.5-48 28.8-48 24-50.2 24-52.8c0-2.7 2.1-4.8 4.8-4.8zM52.8-57.6c2.7 0 4.8 2.1 4.8 4.8S55.5-48 52.8-48 48-50.2 48-52.8c0-2.7 2.1-4.8 4.8-4.8zM28.8-33.6c2.7 0 4.8 2.1 4.8 4.8S31.5-24 28.8-24 24-26.1 24-28.8s2.1-4.8 4.8-4.8zM52.8-33.6c2.7 0 4.8 2.1 4.8 4.8S55.5-24 52.8-24 48-26.1 48-28.8s2.1-4.8 4.8-4.8zM40.8-45.6c2.7 0 4.8 2.1 4.8 4.8S43.5-36 40.8-36 36-38.2 36-40.8c0-2.7 2.1-4.8 4.8-4.8zM16.8-45.6c2.7 0 4.8 2.1 4.8 4.8S19.5-36 16.8-36 12-38.2 12-40.8c0-2.7 2.1-4.8 4.8-4.8zM40.8-21.6c2.7 0 4.8 2.1 4.8 4.8S43.5-12 40.8-12 36-14.1 36-16.8s2.1-4.8 4.8-4.8zM16.8-21.6c2.7 0 4.8 2.1 4.8 4.8S19.5-12 16.8-12 12-14.1 12-16.8s2.1-4.8 4.8-4.8z" />
        </g>
        <defs>
            <path id="ear_c" d="M4.8-52.8h48v48h-48z" />
        </defs>
        <clipPath id="ear_d">
            <use overflow="visible" xlink:href="#ear_c" />
        </clipPath>
        <g class="skin_dark" clip-path="url(#ear_d)">
            <path d="M4.8-57.6c2.7 0 4.8 2.1 4.8 4.8S7.5-48 4.8-48 0-50.1 0-52.8s2.1-4.8 4.8-4.8zM4.8-33.6c2.7 0 4.8 2.1 4.8 4.8S7.5-24 4.8-24 0-26.1 0-28.8s2.1-4.8 4.8-4.8z" />
        </g>
        <g>
            <defs>
                <path id="ear_e" d="M4.8-52.8h48v48h-48z" />
            </defs>
            <clipPath id="ear_f">
                <use overflow="visible" xlink:href="#ear_e" />
            </clipPath>
            <g class="skin_dark" clip-path="url(#ear_f)">
                <path d="M28.8-9.6c2.7 0 4.8 2.1 4.8 4.8S31.5 0 28.8 0 24-2.2 24-4.8c0-2.7 2.1-4.8 4.8-4.8zM52.8-9.6c2.7 0 4.8 2.1 4.8 4.8S55.5 0 52.8 0 48-2.2 48-4.8c0-2.7 2.1-4.8 4.8-4.8z" />
            </g>
        </g>
        <g>
            <defs>
                <path id="ear_g" d="M4.8-52.8h48v48h-48z" />
            </defs>
            <clipPath id="ear_h">
                <use overflow="visible" xlink:href="#ear_g" />
            </clipPath>
            <path class="skin_dark" d="M4.8-9.6c2.7 0 4.8 2.1 4.8 4.8S7.5 0 4.8 0 0-2.2 0-4.8c0-2.7 2.1-4.8 4.8-4.8z" clip-path="url(#ear_h)" />
        </g>
    </pattern>
    <path class="skin_fill" d="M362 530.1l-11.3 7.9c-6.4 4.4-15.2 1.9-18.2-5.2l-15.2-35c0-23 .8-27-2.6-34.4-13.9-30.7-5.5-55.3 6.1-58.3 12.3-3.1 26.9 12.6 32.7 35.1 10.4 41.2 8.5-9 8.5 89.9zm276 0l11.3 7.9c6.4 4.4 15.2 1.9 18.2-5.2l15.2-35c0-23-.8-27 2.6-34.4 13.9-30.7 5.5-55.3-6.1-58.3-12.3-3.1-26.9 12.6-32.7 35.1-10.4 41.2-8.5-9-8.5 89.9z" />
    <pattern id="ear_j" patternTransform="matrix(.2595 0 0 -.2601 -47417.488 1017.571)" xlink:href="#ear_i" />
    <path fill="url(#ear_j)" d="M338.3 497.8c-14.8-8.3-8.7-20.8-12.9-36.2-3.9-14.2-12-27.2-10.6-37.1 1.6-8.7 7.5-9.4 9.2-8.7 10.7 4.8 19.2 66.1 13 71.3-4.3 3.7-1.1 6.7 1.3 10.7zm323.4 0c14.8-8.3 8.7-20.8 12.9-36.2 3.9-14.2 12-27.2 10.6-37.1-1.6-8.7-7.5-9.4-9.2-8.7-10.7 4.8-19.2 66.1-13 71.3 4.3 3.7 1.1 6.7-1.3 10.7z" />
    <path fill="#B7B7D0" d="M322.4 456.1c-.7-.9-1.9-1-2.8-.3-1.7 1.4 1.1 1.5-4.1 5.6-1.7 1.3-.9 1.8-2.7-2.5-2.3 2-5.9 5.6-4 8 3.1 4 17-6.6 13.6-10.8z" />
    <path fill="#A5A5B7" d="M311 467.4c-2.3 0-4.3-2.5 2-8 1.6 3.7 1.5 2.2-.4 4.4 3.2-1.6 6.3-4.7 6.8-6-.6-1.6 1.5-2.8 2.6-1.4 2.6 3.3-7.3 11-11 11zm8.7-9.1z" />
    <path class="skin_outline" d="M313.9 440.2c-1.2.3-2.6-14.9 2.4-22.7 14.1-21.3 28.3 46.5 23.5 66.8-1.5 6.2-5.8 4.2-2.7 9.8 1.5 2.7 3.6 5.7 3.5 8.8 0 3.5-.8-1-2-3.1-2.3-4.2-7.6-8.1-3-12.9 6.4-6.1-4-71.8-14.2-70-7.1 1-7.4 23.2-7.5 23.3zm373.2-4.9c.9-13.3-5.5-26.8-13.4-19.7-10.4 8.4-19.2 66-11.4 72.8 3.9 3.3-.1 5.5-2.2 10.8-.9 2.3-1 5-.5 5 .9 0-1.7.6 4.9-9.1 4-6.1-.5-7.8-1.2-9.5-4.4-10.3 7.1-82.4 18.1-66.6 4.9 6.9 4.2 21.1 4.6 21.2.3 0 .9-1.7 1.1-4.9z" />
    <path fill="#393939" d="M344.2 512.6c-15.2 0-15.2 23 0 23s15.2-23 0-23zm0 15.5c-5.3 0-5.3-8 0-8 5.3.1 5.3 8 0 8zm300.1-4c0 15.2 23 15.2 23 0s-23-15.2-23 0zm7.5 0c0-5.3 8-5.3 8 0s-8 5.3-8 0z" />
    <path fill="#A5A5B7" d="M332.1 508.8c-.5 1.1-.9 3-2.2.8l.6-1.5c-2.3-2.1 0-5.8 2.9-4.6 2.8 1.2 1.8 5.5-1.3 5.3zm-6 15.1c1.5-3.6 1.5-2.4.3-5.2l-1.9 4.5c-1.1-.1-2.3.6-2.7 1.7-1.4 3.3 3.6 5.5 5.1 2.1.3-1.1 0-2.3-.8-3.1z" />
    <pattern id="face_i" width="48" height="48" x="250" y="750" overflow="visible" patternUnits="userSpaceOnUse" viewBox="4.8 -52.8 48 48">
        <defs>
            <path id="face_a" d="M4.8-52.8h48v48h-48z" />
        </defs>
        <clipPath id="face_b">
            <use overflow="visible" xlink:href="#face_a" />
        </clipPath>
        <g class="skin_dark" clip-path="url(#face_b)">
            <path d="M28.8-57.6c2.7 0 4.8 2.1 4.8 4.8S31.5-48 28.8-48 24-50.2 24-52.8c0-2.7 2.1-4.8 4.8-4.8zM52.8-57.6c2.7 0 4.8 2.1 4.8 4.8S55.5-48 52.8-48 48-50.2 48-52.8c0-2.7 2.1-4.8 4.8-4.8zM28.8-33.6c2.7 0 4.8 2.1 4.8 4.8S31.5-24 28.8-24 24-26.1 24-28.8s2.1-4.8 4.8-4.8zM52.8-33.6c2.7 0 4.8 2.1 4.8 4.8S55.5-24 52.8-24 48-26.1 48-28.8s2.1-4.8 4.8-4.8zM40.8-45.6c2.7 0 4.8 2.1 4.8 4.8S43.5-36 40.8-36 36-38.2 36-40.8c0-2.7 2.1-4.8 4.8-4.8zM16.8-45.6c2.7 0 4.8 2.1 4.8 4.8S19.5-36 16.8-36 12-38.2 12-40.8c0-2.7 2.1-4.8 4.8-4.8zM40.8-21.6c2.7 0 4.8 2.1 4.8 4.8S43.5-12 40.8-12 36-14.1 36-16.8s2.1-4.8 4.8-4.8zM16.8-21.6c2.7 0 4.8 2.1 4.8 4.8S19.5-12 16.8-12 12-14.1 12-16.8s2.1-4.8 4.8-4.8z" />
        </g>
        <defs>
            <path id="face_c" d="M4.8-52.8h48v48h-48z" />
        </defs>
        <clipPath id="face_d">
            <use overflow="visible" xlink:href="#face_c" />
        </clipPath>
        <g class="skin_dark" clip-path="url(#face_d)">
            <path d="M4.8-57.6c2.7 0 4.8 2.1 4.8 4.8S7.5-48 4.8-48 0-50.1 0-52.8s2.1-4.8 4.8-4.8zM4.8-33.6c2.7 0 4.8 2.1 4.8 4.8S7.5-24 4.8-24 0-26.1 0-28.8s2.1-4.8 4.8-4.8z" />
        </g>
        <g>
            <defs>
                <path id="face_e" d="M4.8-52.8h48v48h-48z" />
            </defs>
            <clipPath id="face_f">
                <use overflow="visible" xlink:href="#face_e" />
            </clipPath>
            <g class="skin_dark" clip-path="url(#face_f)">
                <path d="M28.8-9.6c2.7 0 4.8 2.1 4.8 4.8S31.5 0 28.8 0 24-2.2 24-4.8c0-2.7 2.1-4.8 4.8-4.8zM52.8-9.6c2.7 0 4.8 2.1 4.8 4.8S55.5 0 52.8 0 48-2.2 48-4.8c0-2.7 2.1-4.8 4.8-4.8z" />
            </g>
        </g>
        <g>
            <defs>
                <path id="face_g" d="M4.8-52.8h48v48h-48z" />
            </defs>
            <clipPath id="face_h">
                <use overflow="visible" xlink:href="#face_g" />
            </clipPath>
            <path class="skin_dark" d="M4.8-9.6c2.7 0 4.8 2.1 4.8 4.8S7.5 0 4.8 0 0-2.2 0-4.8c0-2.7 2.1-4.8 4.8-4.8z" clip-path="url(#face_h)" />
        </g>
    </pattern>
    <path class="skin_fill" d="M500 218.5c-33.6 0-172.1 9-159.1 189.7 0 3.9 1.3 37.1 5.5 89.9 5 63.4 2.7 125.8 63.7 165.2v45.6c0 9.7-6.9 17.9-16.4 19.7l-38.6 7 68.9 80.8c39.9 46.8 112.2 46.8 152.2 0l68.9-80.8-38.6-7c-9.5-1.7-16.4-10-16.4-19.7v-45.6c60.9-39.3 58.6-101.7 63.7-165.2 4.2-52.8 5.5-86 5.5-89.9C672.1 227.5 533.6 218.5 500 218.5z" />
    <pattern id="face_j" patternTransform="matrix(.26 0 0 -.26 -47508.008 1053.57)" xlink:href="#face_i" />
    <path fill="url(#face_j)" d="M500 718.5c18.4 0 33.1-9.9 54.2-17.7 13.9-5.2 25.7-11 35.8-17.6v-20c-10.1 6.5-21.9 12.4-35.8 17.6-21.1 7.8-35.7 17.7-54.2 17.7-18.4 0-33.1-9.9-54.2-17.7-13.9-5.2-25.7-11-35.8-17.6v20c10.1 6.5 21.9 12.4 35.8 17.6 21.1 7.8 35.8 17.7 54.2 17.7z" />
    <path class="skin_outline" d="M340.9 408.2c2.2-.1 14.6 206.7 7 120.9-4.9-54.7-8.3-120.8-7-120.9zM659.1 408.2c3.5.1-13.2 206.8-8.8 120.8 2.1-41.6 8-120.8 8.8-120.8z" />
    <pattern id="face_k" patternTransform="matrix(.26 0 0 -.26 -47508.008 1014.765)" xlink:href="#face_i" />
    <path fill="url(#face_k)" d="M361.6 448.5c4.9 49.9 32.8 41.6 32 71.9l-1.1 50.4c-.4 16.6-24.1 18.9-27.7 2.7-4.8-22-4.6-27.4-11.6-123.7l8.4-1.3z" />
    <pattern id="nose_k" width="48" height="48" x="250" y="750" overflow="visible" patternUnits="userSpaceOnUse" viewBox="4.8 -52.8 48 48">
        <defs>
            <path id="nose_a" d="M4.8-52.8h48v48h-48z" />
        </defs>
        <clipPath id="nose_b">
            <use overflow="visible" xlink:href="#nose_a" />
        </clipPath>
        <g fill="#F9ADAE" clip-path="url(#nose_b)">
            <path d="M28.8-57.6c2.7 0 4.8 2.1 4.8 4.8S31.5-48 28.8-48 24-50.2 24-52.8c0-2.7 2.1-4.8 4.8-4.8zM52.8-57.6c2.7 0 4.8 2.1 4.8 4.8S55.5-48 52.8-48 48-50.2 48-52.8c0-2.7 2.1-4.8 4.8-4.8zM28.8-33.6c2.7 0 4.8 2.1 4.8 4.8S31.5-24 28.8-24 24-26.1 24-28.8s2.1-4.8 4.8-4.8zM52.8-33.6c2.7 0 4.8 2.1 4.8 4.8S55.5-24 52.8-24 48-26.1 48-28.8s2.1-4.8 4.8-4.8zM40.8-45.6c2.7 0 4.8 2.1 4.8 4.8S43.5-36 40.8-36 36-38.2 36-40.8c0-2.7 2.1-4.8 4.8-4.8zM16.8-45.6c2.7 0 4.8 2.1 4.8 4.8S19.5-36 16.8-36 12-38.2 12-40.8c0-2.7 2.1-4.8 4.8-4.8zM40.8-21.6c2.7 0 4.8 2.1 4.8 4.8S43.5-12 40.8-12 36-14.1 36-16.8s2.1-4.8 4.8-4.8zM16.8-21.6c2.7 0 4.8 2.1 4.8 4.8S19.5-12 16.8-12 12-14.1 12-16.8s2.1-4.8 4.8-4.8z" />
        </g>
        <defs>
            <path id="nose_c" d="M4.8-52.8h48v48h-48z" />
        </defs>
        <clipPath id="nose_d">
            <use overflow="visible" xlink:href="#nose_c" />
        </clipPath>
        <g fill="#F9ADAE" clip-path="url(#nose_d)">
            <path d="M4.8-57.6c2.7 0 4.8 2.1 4.8 4.8S7.5-48 4.8-48 0-50.1 0-52.8s2.1-4.8 4.8-4.8zM4.8-33.6c2.7 0 4.8 2.1 4.8 4.8S7.5-24 4.8-24 0-26.1 0-28.8s2.1-4.8 4.8-4.8z" />
        </g>
        <g>
            <defs>
                <path id="nose_e" d="M4.8-52.8h48v48h-48z" />
            </defs>
            <clipPath id="nose_f">
                <use overflow="visible" xlink:href="#nose_e" />
            </clipPath>
            <g fill="#F9ADAE" clip-path="url(#nose_f)">
                <path d="M28.8-9.6c2.7 0 4.8 2.1 4.8 4.8S31.5 0 28.8 0 24-2.2 24-4.8c0-2.7 2.1-4.8 4.8-4.8zM52.8-9.6c2.7 0 4.8 2.1 4.8 4.8S55.5 0 52.8 0 48-2.2 48-4.8c0-2.7 2.1-4.8 4.8-4.8z" />
            </g>
        </g>
        <g>
            <defs>
                <path id="nose_g" d="M4.8-52.8h48v48h-48z" />
            </defs>
            <clipPath id="nose_h">
                <use overflow="visible" xlink:href="#nose_g" />
            </clipPath>
            <path fill="#F9ADAE" d="M4.8-9.6c2.7 0 4.8 2.1 4.8 4.8S7.5 0 4.8 0 0-2.2 0-4.8c0-2.7 2.1-4.8 4.8-4.8z" clip-path="url(#nose_h)" />
        </g>
    </pattern>
    <pattern id="nose_m" width="28.8" height="28.8" x="250" y="750" overflow="visible" patternUnits="userSpaceOnUse" viewBox="1.4 -30.2 28.8 28.8">
        <defs>
            <path id="nose_i" d="M1.4-30.2h28.8v28.8H1.4z" />
        </defs>
        <clipPath id="nose_j">
            <use overflow="visible" xlink:href="#nose_i" />
        </clipPath>
        <g clip-path="url(#nose_j)">
            <g fill="#FFF">
                <path d="M30.2 0c.8 0 1.4-.6 1.4-1.4s-.6-1.4-1.4-1.4-1.4.6-1.4 1.4c0 .8.6 1.4 1.4 1.4zM15.8 0c.8 0 1.4-.6 1.4-1.4s-.6-1.4-1.4-1.4c-.8 0-1.4.6-1.4 1.4 0 .8.6 1.4 1.4 1.4zM30.2-14.4c.8 0 1.4-.6 1.4-1.4s-.6-1.4-1.4-1.4-1.4.6-1.4 1.4c0 .8.6 1.4 1.4 1.4zM15.8-14.4c.8 0 1.4-.6 1.4-1.4s-.6-1.4-1.4-1.4c-.8 0-1.4.6-1.4 1.4 0 .8.6 1.4 1.4 1.4zM8.6-7.2c.8 0 1.4-.6 1.4-1.4S9.4-10 8.6-10c-.8 0-1.4.6-1.4 1.4 0 .8.6 1.4 1.4 1.4zM23-7.2c.8 0 1.4-.6 1.4-1.4S23.8-10 23-10s-1.4.6-1.4 1.4.6 1.4 1.4 1.4zM8.6-21.6c.8 0 1.4-.6 1.4-1.4s-.6-1.4-1.4-1.4c-.8 0-1.4.6-1.4 1.4 0 .8.6 1.4 1.4 1.4zM23-21.6c.8 0 1.4-.6 1.4-1.4s-.6-1.4-1.4-1.4-1.4.6-1.4 1.4c0 .8.6 1.4 1.4 1.4z" />
            </g>
            <g fill="#FFF">
                <path d="M1.4 0c.8 0 1.4-.6 1.4-1.4s-.6-1.4-1.4-1.4C.6-2.9 0-2.2 0-1.4 0-.6.6 0 1.4 0zM1.4-14.4c.8 0 1.4-.6 1.4-1.4s-.6-1.4-1.4-1.4-1.4.6-1.4 1.4.6 1.4 1.4 1.4z" />
            </g>
            <g fill="#FFF">
                <path d="M30.2-28.8c.8 0 1.4-.6 1.4-1.4s-.6-1.4-1.4-1.4-1.4.6-1.4 1.4c0 .8.6 1.4 1.4 1.4zM15.8-28.8c.8 0 1.4-.6 1.4-1.4s-.6-1.4-1.4-1.4-1.4.6-1.4 1.4c0 .8.6 1.4 1.4 1.4z" />
            </g>
            <path fill="#FFF" d="M1.4-28.8c.8 0 1.4-.6 1.4-1.4s-.6-1.4-1.4-1.4C.6-31.7 0-31 0-30.2c0 .8.6 1.4 1.4 1.4z" />
        </g>
    </pattern>
    <pattern id="nose_l" patternTransform="translate(28934.668 -2611.896) scale(.2222)" xlink:href="#nose_k" />
    <path fill="url(#nose_l)" d="M530.6 553.5s-5.6 2.3-12 1.8c-11.5-.6-7.1 8.3-18.6 8.3s-7.1-8.9-18.6-8.3c-6.4.5-12-1.8-12-1.8s-.3 8.1 7.9 8.1c7.4 0 12.2 11 22.8 11s15.3-11 22.8-11c8 0 7.7-8.1 7.7-8.1z" />
    <path class="skin_outline" d="M534.8 540.2c-.6-1.4-15.1-25.2-4.2-3.6 2.3 4.5 4.5 7.7 2.2 12.6-2.4 3.9-6.8 5.1-6.9 4.7-1.4-3.8-5.6-8.3-10.4-6.4-9.9 4.4-3.7 14-15.4 14.4-11.2.4-5.7-10-15.5-14.4-4.7-1.8-9 2.5-10.4 6.4-.1.4-4.6-.9-6.9-4.7-2.3-4.9-.1-8.1 2.2-12.6 10.6-21-3.5 2.1-4.2 3.6-3.4 6.8-.3 14.7 9 16.9 2.3.5 1.6.8 2.5-1.3.8-1.7 8.2 0 11.7 1.5 4.2 11 19.1 10.9 23.3 0 4-1.7 11-2.9 11.7-1.5.6 1.4 0 2.4 3.7 1 8.4-2.9 10.9-10.1 7.6-16.6z" />
    <pattern id="nose_n" patternTransform="matrix(.532 .01347 -.01454 .4929 -3941.14 -4006.93)" xlink:href="#nose_m" />
    <path fill="url(#nose_n)" d="M510.4 544.2c.9-1.5-.3-3.3-2.2-3.3-12.3 0-20.8-1.1-18.1 3.7 4.6 8 15.7 7.7 20.3-.4z" />
    <pattern id="nose_o" patternTransform="matrix(.2767 0 0 -.2564 -50036.66 894.421)" xlink:href="#nose_k" />
    <path fill="url(#nose_o)" d="M477.9 433.6c6.9 10.1 5.1-.1 5.7 54.7 7.9-16.5 6-4.6 6-54.7h-11.7z" />
    <pattern id="nose_p" patternTransform="matrix(.532 .01347 -.01454 .4929 -3941.14 -4006.93)" xlink:href="#nose_m" />
    <path fill="url(#nose_p)" d="M521.3 433.6c-6.9 10.1-5.1-.1-5.7 54.7-7.9-16.5-6-4.6-6-54.7h11.7z" />
    <path fill="#FDF2EE" d="M530.7 521.6h1c0 .8-.7 1.5-1.5 1.5-1.3 0 1.2-.5-6.2-.5-20.4-28.9-12.3-22.1-27.8-22.1 0-.7.8-.5-5.1-.5-18.5 26.2-14.2 22.5-21 22.5-.9 1-2.6.4-2.6-1h7.2c20.4-28.9 12.2-22.1 28.3-22.1 0-.7-.8-.5 5.6-.5 18.7 26.6 14.2 22.5 21.1 22.5 0 .8 1 .8 1 .2zm-5.2-6.8c-21.7-30.3-13.2-23-29.3-23 0-.7.8-.5-5.6-.5l-16.9 23.5h-14.2c0 .7-1 .7-1 0h-1c0 2.3.8 1 16.7 1 21.7-30.2 13.3-23 28.8-23 0-.7-.8-.5 5.1-.5l16.9 23.5h14.1c.9 1 2.6.4 2.6-1h-16.2zm1-5.6l-17.7-25.3c-.5-.7-.9.2-12.5.2 0-.6.8-.4-5.6-.4l-17.9 25.5c-13.4 0-23.3.1-23.3 0h-1c0 2.2-.7 1 24.8 1 22.2-31.7 13.9-25.2 29.8-25.2 0-.6-.8-.4 5.1-.4.3.4 17.7 25.2 17.9 25.5 25.4 0 24.8 1.2 24.8-1-33.4.1-21.9.1-24.4.1zm-28.4-1c-.1-.7.3-.5-1-.6-.4 3.5 5 3.7 5 .3h-1c0 1.7-2.6 2-3 .3zm4-33.8h-1c0 2.1-3.2 1.9-3-.2-.9-.1-1.2-.4-1 .7.6 3 5 2.5 5-.5z" />
    <path class="skin_dark" d="M528.8 520.6H525c-18.5-26.2-13.8-22.5-22-22.5 0 1.3-1.1 1 5.6 1 18.5 26.2 14.5 22.5 20.2 22.5.6 1.6 2.9 1.2 2.9-.5s-2.4-2.1-2.9-.5zm1.4 1c-.7 0-.7-1 0-1 .6 0 .6 1 0 1zm8.6-7.8H526c-19.6-27.4-14.8-23.5-23-23.5 0 1.3-1.1 1 5.6 1l16.9 23.5h13.3c.6 1.6 2.9 1.2 2.9-.5 0-1.6-2.4-2.1-2.9-.5zm1.4 1c-.7 0-.7-1 0-1 .6 0 .6 1 0 1zm7.6-6.6H527c-.3-.4-17.7-25.2-17.9-25.5-7.3 0-6.1-.3-6.1 1 7.5 0 2.7-4.1 23.4 25.3.2.3-1.5.2 21.5.2.6 1.6 2.9 1.2 2.9-.5-.1-1.6-2.4-2.1-3-.5zm1.4 1c-.7 0-.7-1 0-1s.7 1 0 1zm-78.8 11.4c-.2-.6-.8-1-1.4-1-2 0-2 3 0 3 .7 0 1.2-.4 1.4-1h4.3c18.5-26.2 14-22.5 21.5-22.5 0-1.3 1.1-1-6.1-1-18.3 25.9-14.4 22.5-19.7 22.5zm-1.4 1c-.7 0-.7-1 0-1 .6 0 .6 1 0 1zm4.2-7.8h-12.8c-.2-.6-.8-1-1.4-1-2 0-2 3 0 3 .7 0 1.2-.4 1.4-1h13.3c19.6-27.4 15-23.5 22.5-23.5 0-1.3 1.1-1-6.1-1l-16.9 23.5zm-14.2 1c-.7 0-.7-1 0-1 .6 0 .6 1 0 1zm13.2-6.6h-20.8c-.2-.6-.8-1-1.4-1-2 0-2 3 0 3 .7 0 1.2-.4 1.4-1h21.4c20.8-29.7 16-25.5 23.5-25.5 0-1.3 1.1-1-6.1-1l-18 25.5zm-22.3 1c-.7 0-.7-1 0-1s.7 1 0 1zm49.7-4.6c-3.3 0-3.3 5 0 5s3.3-5 0-5zm0 4c-2 0-2-3 0-3s2 3 0 3zm0-37.4c-3.3 0-3.3 5 0 5s3.3-5 0-5zm0 4c-2 0-2-3 0-3s2 3 0 3zm-3.4 6.8c8.1 0 6.8-.7 6.8 2.1-8.2 0-6.8.7-6.8-2.1zm0 7.7c8.1 0 6.8-.7 6.8 2.1-8.2 0-6.8.7-6.8-2.1zm0 7.8c8.1 0 6.8-.7 6.8 2.1-8.2 0-6.8.7-6.8-2.1z" />
    <pattern id="mouth_i" width="28.8" height="28.8" x="250" y="750" overflow="visible" patternUnits="userSpaceOnUse" viewBox="1.4 -30.2 28.8 28.8">
        <defs>
            <path id="mouth_a" d="M1.4-30.2h28.8v28.8H1.4z" />
        </defs>
        <clipPath id="mouth_b">
            <use overflow="visible" xlink:href="#mouth_a" />
        </clipPath>
        <g class="skin_halftone" clip-path="url(#mouth_b)">
            <path d="M30.2 0c1.9 0 1.9-2.8 0-2.8S28.3 0 30.2 0zM15.8 0c1.9 0 1.9-2.8 0-2.8S13.9 0 15.8 0zM30.2-14.4c1.9 0 1.9-2.8 0-2.8s-1.9 2.8 0 2.8zM15.8-14.4c1.9 0 1.9-2.8 0-2.8s-1.9 2.8 0 2.8zM8.6-7.2c1.9 0 1.9-2.8 0-2.8s-1.9 2.8 0 2.8zM23-7.2c1.9 0 1.9-2.8 0-2.8s-1.9 2.8 0 2.8zM8.6-21.6c1.9 0 1.9-2.8 0-2.8s-1.9 2.8 0 2.8zM23-21.6c1.9 0 1.9-2.8 0-2.8s-1.9 2.8 0 2.8z" />
        </g>
        <defs>
            <path id="mouth_c" d="M1.4-30.2h28.8v28.8H1.4z" />
        </defs>
        <clipPath id="mouth_d">
            <use overflow="visible" xlink:href="#mouth_c" />
        </clipPath>
        <g class="skin_halftone" clip-path="url(#mouth_d)">
            <path d="M1.4 0c1.9 0 1.9-2.8 0-2.8C-.4-3-.6 0 1.4 0zM1.4-14.4c1.9 0 1.9-2.8 0-2.8s-1.9 2.8 0 2.8z" />
        </g>
        <g>
            <defs>
                <path id="mouth_e" d="M1.4-30.2h28.8v28.8H1.4z" />
            </defs>
            <clipPath id="mouth_f">
                <use overflow="visible" xlink:href="#mouth_e" />
            </clipPath>
            <g class="skin_halftone" clip-path="url(#mouth_f)">
                <path d="M30.2-28.8c1.9 0 1.9-2.8 0-2.8s-1.9 2.8 0 2.8zM15.8-28.8c1.9 0 1.9-2.8 0-2.8s-1.9 2.8 0 2.8z" />
            </g>
        </g>
        <g>
            <defs>
                <path id="mouth_g" d="M1.4-30.2h28.8v28.8H1.4z" />
            </defs>
            <clipPath id="mouth_h">
                <use overflow="visible" xlink:href="#mouth_g" />
            </clipPath>
            <path class="skin_halftone" d="M1.4-28.8c1.9 0 1.9-2.8 0-2.8-1.8-.2-2 2.8 0 2.8z" clip-path="url(#mouth_h)" />
        </g>
    </pattern>
    <path fill="#241F20" d="M456.1 610.5s73.9-24.7 80.9-20.7 15.8 11 15.8 11c-25.1 41.9-85.6 33.6-96.7 9.7z" />
    <path fill="#EB8874" d="M532.6 632c-65.4 1.6-68.6 3.7-67.2-3.3.6-3.1.6-5.2 2.1-5.3 71.6-3 67.5-3.5 68-1.4.6 1.8 3.7 9.8-2.9 10z" />
    <path fill="#DBBA65" d="M528.7 615.2c-.5-1.3-2.5-3.2-4-3.1-1.5.1-4.8 3.8-4.8 3.8-.1-3.8-3.9-2.8-9-2.6-.1 0-1.8.2-1.8 2.2-.1-3.5-6.4-2.5-9.1-1.9-.8.2-1.3 1-1.3 1.9 0-.9-.6-1.6-1.4-1.7-2.8-.3-8.8-.6-8.7 2.8-.1-2.8-2.7-1.9-7.5-1.5-1.3.1-2.2 1.4-2.2 2.9 0 0-3.1-3.1-4.3-3.1-1.3.1-2.8 2-3.2 3.2 0 0-1.8-1.5-3.2.2l8.5 8.9c4.3-3.2 1.2-4 4-.9 4.5-3.2 8-2.4 8-3.6 0-.2.2-.3.5.3 11.4-2.3 19.7-.1 20.2-1.3 0-.1.3-.4.3.5 10.3.7 9.8 1.3 10 .8.2-.6.7.1.8.3 5.8.8 2.6 2.5 12.2-8.3-2-1.5-4 .2-4 .2z" />
    <path fill="#B59052" d="M518.8 623.1c1.8-1.6 1.6-3.4 2.1-2.7 3.1 4 8.2 4-2.1 2.7zm-29.8 0c3.4-.7 1.7.5.1-3.2-.4-.9-.3 2.6-.1 3.2zm-8.6-.8c-.4-1.1-1.5 2.8-5 3.7l1.2 1.3c4.3-3.2 1.2-4 4-.9 4-2.9 1.3.4-.2-4.1zm29.7-2.9c-1.2 3.1-2.1 2.8-1.1 2.8.3-.8.5-.5.5-.4 0 .5-.2.4 1.1.5-.1-1.2-.1-3.8-.5-2.9z" />
    <path fill="#EB8874" d="M544 594.1c-7.2-8.5-20.5-2.9-75.3 13.8l70.7-7.8s3.1-2.6 4.6-6z" />
    <path fill="#F7F3E8" d="M473.6 609.9s.6 2.1 4.6 1.8c4.6-.3 6.4-6 5.9-4.7-.8 2.1.8 4.2 2.9 4.1 5.9-.4 12.6.6 12.5-4.3.2 4.9 6.9 3 13.3 2.6 2.3-.2 3.9-2.7 2.9-4.7-1-1.9 1.6 4.4 7.1 4.1 4.7-.3 5.3-2.7 5.3-2.7 4.9 8.1 10.5.2 11.9-8.5 0 0-4.9-4.4-10.7 1.4-1.6 1.6-.4-6.4-6.2-6.7-5.7-.2-7 9.6-7.9 7.1-.4-1.3-1.3-3.3-3.1-4.4-11.8 3.3-11 2.1-12.5 6.6-.4 1.4-1.3-1.2-2.1-2.4l-32.1 9.8c2.3 4.8 5.6 6.8 8.2.9z" />
    <g>
        <path class="skin_dark" d="M503.8 586.9c-5.2 3.6-9.1 2.7-25.6 2.7-23.1 0-29.9 16.1-27 19.5l-3.1-.8c12.8 11.2 2.4 41.5 52.1 36 50.1-5.5 50.5-42.1 54.6-43.6-7.2-1.8-3-47-51-13.8zm20.8 37.1s-38.8-6.7-46.5 4.9c-11.5-12.1-13.9-16-21.2-18.1 1.3.2 2.7.1 4-.3 74.3-22.7 75.7-24.9 85.8-13.1.8 1.8 2.3 3.1 4.2 3.5-8.1.2-10 4.6-26.3 23.1z" />
    </g>
    <g>
        <pattern id="mouth_j" patternTransform="matrix(.448 0 0 .448 -29138.03 3006.561)" xlink:href="#mouth_i" />
        <path fill="url(#mouth_j)" d="M460.9 610.3c49-15 80-26.6 84.1-17.1 2.5 5.9 2.7 8.1 9.8 7.5-7.2-1.8-2.9-47-51-13.8-5.2 3.6-9.1 2.7-25.6 2.7-25.1 0-31 19.1-26 20.1 3.6.8 5.7 1.6 8.7.6z" />
    </g>
    <g>
        <path class="skin_outline" d="M550.4 601.4c-2.2-.6-3-1.9-6.7-5.9-8-8.9-19.4-2.1-74.8 13.9-8.1 2.3-8.1 2.3-9 2.4-3.6.5-18-3.9-17.9-4.4.2-.9 14.7 2.5 17.5 1.9.9-.2-.6.2 18.5-6 47.7-15.2 59.7-19.1 67.5-9.4 2.9 3.6 4.3 6.6 7.7 6.1 11.5-.7-.7 2.1-2.8 1.4z" />
    </g>
    <g fill="#FFFAEE">
        <path d="M528.3 619.8c.7-.8.7-.6.5-1.2-.4-1.3-2-4-.5 1.2zM507.1 614.8c-1.6-2.3-6.2-.2-6.2 0 0 .4 2.5-.2 3.6-.2 1.9-.2 2.7 1.5 2.9 1.3.2 0 .2-.5-.3-1.1zM507.4 618c-.2 0-1.1 3.8-1 3.8.8.8 2.2-4 1-3.8zM525.9 613.5c-1.3-.9-2.7.1-2.5.4.1.2 1.1-.3 2 .4.9.6 1.6 1.5 1.8 1.4.4-.2-.3-1.5-1.3-2.2zM515.6 614.4c-2.2.1-6.3.7-.1.8 2 .2 1.6 2.5 1.2 4.4-1.1 5.4 4-5.1-1.1-5.2zM493.8 614.5c-1.6.2-2.7.9-2.6 1.1.1.2 1.3-.1 2.7-.2 1.4-.1 2.6.1 2.7-.2 0-.2-1.2-.9-2.8-.7zM469.5 618.4c-.7.1-.2.5.3 1 1.8 1.3 1-1.2-.3-1zM497.4 616.1c-.1.1.2 2.3-.2 5.1-.1 1-.2.9.1.9 1.7-1 .8-6.8.1-6zM483.8 616.1c-3.1.2-3.1 1.1 0 .9 3.2-.2 3.1-1.1 0-.9zM475 616.1c-2.9-.8 5.6 5.6 1.3.8-.4-.4-.9-.7-1.3-.8z" />
    </g>
    <path class="skin_dark" d="M548.5 410c-1.4 0-1 1.3-1-8.4l11.8-11.8v-21l-12.2-11.9-46.8 19.9c-1.1-.1 4.4 2.2-47.5-19.9L440.7 369v20.7c14.2 14.2 11.8 9.7 11.8 20.3-1.3 0-1 1.3-1-8l-11.8-11.8v-21.5l13-13.1 47.2 20.1c.4 0-3.3 1.5 47.5-20.1l13 12.7v21.9c-14.3 14.1-11.9 9.7-11.9 19.8z" />
    <path fill="#FDF2EE" d="M547.5 410c-1.4 0-1 1.3-1-8.4l11.8-11.8v-20.4l-11.5-11.5-46.9 20-46.9-20-11.5 11.5v20.4l11.8 11.8c0 9.8.3 8.4-1 8.4 0-10.1 2.4-5.6-11.8-19.9v-21.2l12.2-12.2 47.1 20 47.1-20 12.2 12.2v21.2c-14 14.2-11.6 9.8-11.6 19.9z" />
    <path class="skin_dark" d="M636.1 549.2h-1v-61.5l-30.8-30.8.7-.7 31.1 31.1zM520.7 684c-11.5-6.2-3.8-4.7-32.8-4.7-9.9 5.4-8.4 5-9.1 3.8 11.8-6.4 3.9-4.8 33.6-4.8 10.1 5.6 9 4.5 8.3 5.7z" />
    <path fill="#FDF2EE" d="M635.1 549.2h-1v-60.9l-30.6-30.6.7-.7 30.9 30.8z" />
    <path class="skin_dark" d="M364.9 549.2h-1v-61.9l31.1-31.1.7.7-30.8 30.8z" />
    <path fill="#FDF2EE" d="M365.9 549.2h-1v-61.4l30.9-30.8.7.7-30.6 30.6zM520.7 682.6c-11-5.7-3.3-4.3-33.1-4.3-9.5 4.9-8 4.6-8.7 3.4 11.3-5.9 3.4-4.4 33.8-4.4 9.7 5.1 8.6 4.1 8 5.3z" />
    <g>
        <path fill="#241F20" d="M613 456.7l21.2 21.2.3-21.2z" />
        <path fill="#21589B" d="M615.4 458.4c0-1.5-.3-1.2 1-1.2 0 2.7.3 2.5-1 1.2z" />
        <path fill="#C61717" d="M617.4 460.4c0-3.8-.3-3.2 1-3.2 0 5.2.3 4.5-1 3.2z" />
        <path fill="#21589B" d="M619.4 462.4c0-6.2-.3-5.2 1-5.2 0 7.4.4 6.6-1 5.2z" />
        <path fill="#C61717" d="M621.4 464.4c0-8.3-.4-7.2 1-7.2 0 9.9.4 8.6-1 7.2z" />
        <path fill="#21589B" d="M623.4 466.4c0-10.6-.4-9.2 1-9.2 0 12.2.4 10.6-1 9.2z" />
        <path fill="#C61717" d="M625.4 468.4c0-12.9-.4-11.2 1-11.2 0 14 .4 12.6-1 11.2z" />
        <path fill="#21589B" d="M627.4 470.4c0-15.2-.4-13.2 1-13.2 0 16.3.4 14.6-1 13.2z" />
        <path fill="#C61717" d="M629.4 472.4c0-17.4-.4-15.2 1-15.2 0 19.4.3 16.5-1 15.2z" />
        <path fill="#21589B" d="M631.4 474.4c0-19.7-.4-17.2 1-17.2 0 21.8.3 18.5-1 17.2z" />
        <path fill="#C61717" d="M633.4 476.4c0-22.1-.4-19.3 1.1-19-.4 24.2.1 21.3-1.1 19z" />
        <path fill="#194274" d="M615.4 458.9c1.3 1.3 1 1.6 1-1.2-1.3 0-1-.3-1 1.2z" />
        <path fill="#951111" d="M617.4 460.5c1.3 1.1 1 1.8 1-2.8-1.4 0-1-.6-1 2.8z" />
        <path fill="#194274" d="M619.4 460.5c1.3 0 1 .6 1-2.8-1.4 0-1-.6-1 2.8z" />
        <path fill="#951111" d="M621.4 460.5c1.3 0 1 .6 1-2.8-1.4 0-1-.6-1 2.8z" />
        <path fill="#194274" d="M623.4 460.5c1.3 0 1 .6 1-2.8-1.4 0-1-.6-1 2.8z" />
        <path fill="#951111" d="M625.4 460.5c1.3 0 1 .6 1-2.8-1.4 0-1-.6-1 2.8z" />
        <path fill="#194274" d="M627.4 460.5c1.3 0 1 .6 1-2.8-1.4 0-1-.6-1 2.8z" />
        <path fill="#951111" d="M629.4 460.5c1.3 0 1 .6 1-2.8-1.4 0-1-.6-1 2.8z" />
        <path fill="#194274" d="M631.4 460.5c1.3 0 1 .6 1-2.8-1.4 0-1-.6-1 2.8z" />
        <path fill="#951111" d="M634.5 457.8c-1.4-.2-1.1-.8-1.1 2.7 1.4.2 1 .7 1.1-2.7z" />
        <g>
            <path fill="#FDF2EE" d="M613 456.7c24.4 24.4 21.2 21.6 21.2 20.2-22.1-22.1-18.4-18.8-21.2-20.2z" />
        </g>
        <g>
            <path class="skin_dark" d="M615 457.7c22.4 0 19.5.4 19.5-1-25.8 0-22.4-.5-19.5 1z" />
        </g>
        <g>
            <path fill="#FDF2EE" d="M366.1 479.7c-1-1-4 2.6 22.1-23.3 1 .9 4-2.7-22.1 23.3z" />
            <path class="skin_dark" d="M365.3 479.1l-.3-22.9h23.2l-22.9 22.9zm.7-21.9l.3 19.5 19.5-19.5H366z" />
        </g>
    </g>
    <g>
        <path fill="#FDF2EE" d="M497.5 368.6c1.2.1 1 .1 1 .3 0 2 3 2 3 0h1c0 3.5-5.4 3.1-5-.3z" />
        <path class="skin_dark" d="M500 370.6c-3.3 0-3.3-5 0-5s3.3 5 0 5zm0-4c-2 0-2 3 0 3s2-3 0-3z" />
    </g>
    <g>
        <path fill="#FDF2EE" d="M497.5 686.9c1.2.1 1 .1 1 .3 0 2 3 2 3 0h1c0 3.5-5.4 3.1-5-.3z" />
        <path class="skin_dark" d="M500 688.9c-3.3 0-3.3-5 0-5s3.3 5 0 5zm0-4c-2 0-2 3 0 3s2-3 0-3z" />
    </g>
    <pattern id="eye_q" width="48" height="48" x="250" y="750" overflow="visible" patternUnits="userSpaceOnUse" viewBox="4.8 -52.8 48 48">
        <defs>
            <path id="eye_a" d="M4.8-52.8h48v48h-48z" />
        </defs>
        <clipPath id="eye_b">
            <use overflow="visible" xlink:href="#eye_a" />
        </clipPath>
        <g class="skin_dark" clip-path="url(#eye_b)">
            <path d="M28.8 0c2.7 0 4.8-2.1 4.8-4.8s-2.1-4.8-4.8-4.8S24-7.4 24-4.8C24-2.1 26.1 0 28.8 0zM52.8 0c2.7 0 4.8-2.1 4.8-4.8s-2.1-4.8-4.8-4.8S48-7.4 48-4.8C48-2.1 50.1 0 52.8 0zM28.8-24c2.7 0 4.8-2.1 4.8-4.8s-2.1-4.8-4.8-4.8-4.8 2.1-4.8 4.8 2.1 4.8 4.8 4.8zM52.8-24c2.7 0 4.8-2.1 4.8-4.8s-2.1-4.8-4.8-4.8-4.8 2.1-4.8 4.8 2.1 4.8 4.8 4.8zM40.8-12c2.7 0 4.8-2.1 4.8-4.8s-2.1-4.8-4.8-4.8-4.8 2.2-4.8 4.8c0 2.7 2.1 4.8 4.8 4.8zM16.8-12c2.7 0 4.8-2.1 4.8-4.8s-2.1-4.8-4.8-4.8-4.8 2.2-4.8 4.8c0 2.7 2.1 4.8 4.8 4.8zM40.8-36c2.7 0 4.8-2.1 4.8-4.8s-2.1-4.8-4.8-4.8-4.8 2.1-4.8 4.8 2.1 4.8 4.8 4.8zM16.8-36c2.7 0 4.8-2.1 4.8-4.8s-2.1-4.8-4.8-4.8-4.8 2.1-4.8 4.8 2.1 4.8 4.8 4.8z" />
        </g>
        <defs>
            <path id="eye_c" d="M4.8-52.8h48v48h-48z" />
        </defs>
        <clipPath id="eye_d">
            <use overflow="visible" xlink:href="#eye_c" />
        </clipPath>
        <g class="skin_dark" clip-path="url(#eye_d)">
            <path d="M4.8 0c2.7 0 4.8-2.1 4.8-4.8S7.5-9.6 4.8-9.6 0-7.5 0-4.8 2.1 0 4.8 0zM4.8-24c2.7 0 4.8-2.1 4.8-4.8s-2.1-4.8-4.8-4.8S0-31.5 0-28.8 2.1-24 4.8-24z" />
        </g>
        <g>
            <defs>
                <path id="eye_e" d="M4.8-52.8h48v48h-48z" />
            </defs>
            <clipPath id="eye_f">
                <use overflow="visible" xlink:href="#eye_e" />
            </clipPath>
            <g class="skin_dark" clip-path="url(#eye_f)">
                <path d="M28.8-48c2.7 0 4.8-2.1 4.8-4.8s-2.1-4.8-4.8-4.8-4.8 2.2-4.8 4.8c0 2.7 2.1 4.8 4.8 4.8zM52.8-48c2.7 0 4.8-2.1 4.8-4.8s-2.1-4.8-4.8-4.8-4.8 2.2-4.8 4.8c0 2.7 2.1 4.8 4.8 4.8z" />
            </g>
        </g>
        <g>
            <defs>
                <path id="eye_g" d="M4.8-52.8h48v48h-48z" />
            </defs>
            <clipPath id="eye_h">
                <use overflow="visible" xlink:href="#eye_g" />
            </clipPath>
            <path class="skin_dark" d="M4.8-48c2.7 0 4.8-2.1 4.8-4.8s-2.1-4.8-4.8-4.8S0-55.4 0-52.8C0-50.1 2.1-48 4.8-48z" clip-path="url(#eye_h)" />
        </g>
    </pattern>
    <pattern id="eye_s" width="48" height="48" x="250" y="750" overflow="visible" patternUnits="userSpaceOnUse" viewBox="4.8 -52.8 48 48">
        <defs>
            <path id="eye_i" d="M4.8-52.8h48v48h-48z" />
        </defs>
        <clipPath id="eye_j">
            <use overflow="visible" xlink:href="#eye_i" />
        </clipPath>
        <g class="skin_dark" clip-path="url(#eye_j)">
            <path d="M28.8 0c2.7 0 4.8-2.1 4.8-4.8s-2.1-4.8-4.8-4.8S24-7.4 24-4.8C24-2.1 26.1 0 28.8 0zM52.8 0c2.7 0 4.8-2.1 4.8-4.8s-2.1-4.8-4.8-4.8S48-7.4 48-4.8C48-2.1 50.1 0 52.8 0zM28.8-24c2.7 0 4.8-2.1 4.8-4.8s-2.1-4.8-4.8-4.8-4.8 2.1-4.8 4.8 2.1 4.8 4.8 4.8zM52.8-24c2.7 0 4.8-2.1 4.8-4.8s-2.1-4.8-4.8-4.8-4.8 2.1-4.8 4.8 2.1 4.8 4.8 4.8zM40.8-12c2.7 0 4.8-2.1 4.8-4.8s-2.1-4.8-4.8-4.8-4.8 2.2-4.8 4.8c0 2.7 2.1 4.8 4.8 4.8zM16.8-12c2.7 0 4.8-2.1 4.8-4.8s-2.1-4.8-4.8-4.8-4.8 2.2-4.8 4.8c0 2.7 2.1 4.8 4.8 4.8zM40.8-36c2.7 0 4.8-2.1 4.8-4.8s-2.1-4.8-4.8-4.8-4.8 2.1-4.8 4.8 2.1 4.8 4.8 4.8zM16.8-36c2.7 0 4.8-2.1 4.8-4.8s-2.1-4.8-4.8-4.8-4.8 2.1-4.8 4.8 2.1 4.8 4.8 4.8z" />
        </g>
        <defs>
            <path id="eye_k" d="M4.8-52.8h48v48h-48z" />
        </defs>
        <clipPath id="eye_l">
            <use overflow="visible" xlink:href="#eye_k" />
        </clipPath>
        <g class="skin_dark" clip-path="url(#eye_l)">
            <path d="M4.8 0c2.7 0 4.8-2.1 4.8-4.8S7.5-9.6 4.8-9.6 0-7.5 0-4.8 2.1 0 4.8 0zM4.8-24c2.7 0 4.8-2.1 4.8-4.8s-2.1-4.8-4.8-4.8S0-31.5 0-28.8 2.1-24 4.8-24z" />
        </g>
        <g>
            <defs>
                <path id="eye_m" d="M4.8-52.8h48v48h-48z" />
            </defs>
            <clipPath id="eye_n">
                <use overflow="visible" xlink:href="#eye_m" />
            </clipPath>
            <g class="skin_dark" clip-path="url(#eye_n)">
                <path d="M28.8-48c2.7 0 4.8-2.1 4.8-4.8s-2.1-4.8-4.8-4.8-4.8 2.2-4.8 4.8c0 2.7 2.1 4.8 4.8 4.8zM52.8-48c2.7 0 4.8-2.1 4.8-4.8s-2.1-4.8-4.8-4.8-4.8 2.2-4.8 4.8c0 2.7 2.1 4.8 4.8 4.8z" />
            </g>
        </g>
        <g>
            <defs>
                <path id="eye_o" d="M4.8-52.8h48v48h-48z" />
            </defs>
            <clipPath id="eye_p">
                <use overflow="visible" xlink:href="#eye_o" />
            </clipPath>
            <path class="skin_dark" d="M4.8-48c2.7 0 4.8-2.1 4.8-4.8s-2.1-4.8-4.8-4.8S0-55.4 0-52.8C0-50.1 2.1-48 4.8-48z" clip-path="url(#eye_p)" />
        </g>
    </pattern>
    <pattern id="eye_r" patternTransform="matrix(.26 0 0 .26 -53304.89 -7094.518)" xlink:href="#eye_q" />
    <path fill="url(#eye_r)" d="M635.5 420.8s0 31-32.7 20.5c-35.3-19.3-54.9 5.3-54.9 5.3-11.5-.4-16.3-17.6-16.3-17.6s71.2-35 103.9-8.2z" />
    <path class="hair_brow" d="M531.5 428.9s42.4-15.5 79.2-15.5c12.3 0 24.7 7.3 24.7 7.3s-2.7-23.8-23.6-23.8c-21.5 0-67.2 19-67.2 19s-11.3 4.6-13.1 13z" />
    <path class="skin_outline" d="M598.5 439.1c.4-.6-15.7-13.8-37.3-3.2-8.4 4.1-13.9 10.2-13.4 10.6.6.6 10.4-9 24.4-11.6 15.4-2.9 25.7 5.2 26.3 4.2z" />
    <path fill="#FFF" d="M601.1 449c-1.3 6.4-7.8 13.2-19.1 15-3 .5-.8.4-22.4.4-6.5 0-11.9-2.8-13.7-7 21.3-24 45.3-16.4 55.2-8.4z" />
    <path class="eye_iris" d="M581.8 464c-3 .5-.8.4-22.4.4-5.2-5.2-6.4-12.1-4.1-17.8 9.1-6.5 17.8-8 25.2-7.2 7.9 5.9 8.9 17.8 1.3 24.6z" />
    <path d="M563.6 452.4c0 9.3 14 9.3 14 0s-14-9.3-14 0z" />
    <g>
        <path d="M547.1 459.4l-.1-.1c.1 0 .1.1.1.1z" />
        <path fill="#241F20" d="M546.3 456.7c-4.8 6.6 24.6-31.6 54.8-7.8-3 14.9-19.8 13.9-33.8 14.3-21.7.7-19-5.1-20.2-3.9-.1.1.2.5.8 1.4 5 5.4 12 5 30.4 5.1 5.7.1 11.3.2 19.4-4.3 9.7-5.6 18.2-16.7 18.2-16.9-49.5-20.4-70.1 10.3-69.6 12.1z" />
    </g>
    <g>
        <pattern id="eye_t" patternTransform="matrix(.26 0 0 .26 -53304.89 -7094.518)" xlink:href="#eye_s" />
        <path fill="url(#eye_t)" d="M364.5 420.8s0 31 32.7 20.5c35.3-19.3 54.9 5.3 54.9 5.3 11.5-.4 16.3-17.6 16.3-17.6s-71.2-35-103.9-8.2z" />
        <path class="skin_outline" d="M426.9 434.9c14 2.6 23.8 12.2 24.4 11.6.5-.4-5-6.5-13.4-10.6-21.6-10.6-37.7 2.6-37.3 3.2.6 1 10.9-7.1 26.3-4.2z" />
        <path class="hair_brow" d="M468.5 428.9s-42.4-15.5-79.2-15.5c-12.3 0-24.7 7.3-24.7 7.3s2.7-23.8 23.6-23.8c21.5 0 67.2 19 67.2 19s11.3 4.6 13.1 13z" />
        <g>
            <path fill="#313536" d="M453.2 457.4c-1.8 4.2-7.2 7-13.7 7-10.5 0-38.4 3.1-42.1-15.5 8.8-8.4 34.5-15.5 55.8 8.5z" />
            <path fill="#C61717" d="M415.6 441.9c9-1.1 19.6 0 27.8 4.7 2.3 5.7 1.2 12.6-4.1 17.8-22.2.1-20 0-22.4-.4-6.6-5.9-6.6-15.7-1.3-22.1z" />
            <path fill="#4B0909" d="M433.2 452.4c0 6.6-10 6.6-10 0s10-6.6 10 0z" />
            <path fill="#250404" d="M428.2 449.4c-5.3 0-5 6.6-5 3 0-6.6 10-6.6 10 0 0 3.5.2-3-5-3z" />
            <path fill="#DD7474" d="M428.2 459.1c-5.7 0-7.1-6.2-5.8-6.2 0 7.6 11.5 7.6 11.5 0 1.4 0 0 6.2-5.7 6.2z" />
            <path d="M422 452.4c0-8.2 12.5-8.2 12.5 0 0 8.3-12.5 8.2-12.5 0zm6.2-5.7c-7.7 0-7.7 11.3 0 11.3 7.7.1 7.7-11.3 0-11.3z" />
            <path fill="#DD7474" d="M428.2 462.1c-8.7 0-10.1-9.2-8.8-9.2 0 11.6 17.5 11.6 17.5 0 1.3 0 .1 9.2-8.7 9.2z" />
            <path fill="#951111" d="M444.2 449s-13.6-4.8-30.8-3.8c1.1-1.9 2.2-3.3 2.2-3.3 7.4-1.3 27.3.3 28.6 7.1z" />
            <path d="M428.2 461.6c-12.3 0-12.3-18.3 0-18.3 12.3-.1 12.3 18.3 0 18.3zm0-17.9c-11.7 0-11.7 17.3 0 17.3 11.7.1 11.7-17.3 0-17.3z" />
            <path fill="#DD7474" d="M413.2 455.8c-.1-1-.2-1.9-.2-2.9.8 0 .3-.5.7 2.3 2.5-.4 2.5-.2 2.4-.9-.2-1.7-.2-1.4.4-1.4 0 2.8 1.1 2.1-3.3 2.9zM443.2 455.8c-4.4-.8-3.3-.1-3.3-2.9.6 0 .6-.3.4 1.4-.1.7-.1.5 2.4.9.3-2.8-.1-2.3.7-2.3.1 1-.1 1.9-.2 2.9z" />
            <path d="M413.2 455.3c-.2-1-.6-5.9.2-5.7 4.8.9 2.5-.1 3.1 4.2.2 1.3-.2.9-3.3 1.5zm.4-5.2c-.2 1.7-.2 3 0 4.6 3.3-.6 2.3.1 2.3-2.3.1-2.4 1-1.7-2.3-2.3zM443.1 455.3c-4.4-.8-3.2-.1-3.2-2.9s-1.1-2.1 3.2-2.9c.5 2.4.4 3.8 0 5.8zm-.4-5.2c-3.9.7-1.9-.4-2.5 3.7-.1.7-.1.5 2.5.9.3-1.6.3-2.9 0-4.6z" />
            <path fill="#EACFCF" d="M424.8 450.4c0 2 3 2 3 0 0-1.9-3-2-3 0z" />
        </g>
        <path fill="#241F20" d="M383.2 444.6c0 .2 8.5 11.3 18.2 16.9 8.1 4.5 13.7 4.4 19.4 4.3 18.4-.1 25.4.3 30.4-5.1.6-.9.9-1.3.8-1.4-1.2-1.2 1.5 4.6-20.2 3.9-14-.4-30.8.6-33.8-14.3 5.2-4.1 14.2-8.2 24.7-7.7 21.3 2.6 28.8 15.6 30.5 16.2.5-1.8-20.5-33.2-70-12.8z" />
    </g>
    <pattern id="hair_e" width="28.8" height="28.8" y="1000" overflow="visible" patternUnits="userSpaceOnUse" viewBox="1.4 -30.2 28.8 28.8">
        <defs>
            <path id="hair_a" d="M1.4-30.2h28.8v28.8H1.4z" />
        </defs>
        <clipPath id="hair_b">
            <use overflow="visible" xlink:href="#hair_a" />
        </clipPath>
        <g class="hair_shadow" clip-path="url(#hair_b)">
            <path d="M30.2-31.6c.8 0 1.4.6 1.4 1.4 0 .8-.6 1.4-1.4 1.4s-1.4-.6-1.4-1.4c0-.8.6-1.4 1.4-1.4zM15.8-31.6c.8 0 1.4.6 1.4 1.4 0 .8-.6 1.4-1.4 1.4-.8 0-1.4-.6-1.4-1.4 0-.8.6-1.4 1.4-1.4zM30.2-17.2c.8 0 1.4.6 1.4 1.4s-.6 1.4-1.4 1.4-1.4-.6-1.4-1.4c0-.8.6-1.4 1.4-1.4zM15.8-17.2c.8 0 1.4.6 1.4 1.4s-.6 1.4-1.4 1.4c-.8 0-1.4-.6-1.4-1.4 0-.8.6-1.4 1.4-1.4zM8.6-24.4c.8 0 1.4.6 1.4 1.4 0 .8-.6 1.4-1.4 1.4-.8 0-1.4-.6-1.4-1.4 0-.8.6-1.4 1.4-1.4zM23-24.4c.8 0 1.4.6 1.4 1.4 0 .8-.6 1.4-1.4 1.4s-1.4-.6-1.4-1.4.6-1.4 1.4-1.4zM8.6-10c.8 0 1.4.6 1.4 1.4s-.6 1.4-1.4 1.4c-.8 0-1.4-.6-1.4-1.4 0-.8.6-1.4 1.4-1.4zM23-10c.8 0 1.4.6 1.4 1.4s-.6 1.4-1.4 1.4-1.4-.6-1.4-1.4.6-1.4 1.4-1.4z" />
            <g>
                <path d="M1.4-31.6c.8 0 1.4.6 1.4 1.4 0 .8-.6 1.4-1.4 1.4-.8.1-1.4-.6-1.4-1.4 0-.8.6-1.4 1.4-1.4zM1.4-17.2c.8 0 1.4.6 1.4 1.4s-.6 1.4-1.4 1.4S0-15 0-15.8s.6-1.4 1.4-1.4z" />
            </g>
            <g>
                <path d="M30.2-2.8c.8 0 1.4.6 1.4 1.4S31 0 30.2 0s-1.4-.6-1.4-1.4c0-.8.6-1.4 1.4-1.4zM15.8-2.8c.8 0 1.4.6 1.4 1.4S16.6 0 15.8 0s-1.4-.6-1.4-1.4c0-.8.6-1.4 1.4-1.4z" />
            </g>
            <path d="M1.4-2.8c.8 0 1.4.6 1.4 1.4S2.2 0 1.4 0C.6.1 0-.6 0-1.4c0-.8.6-1.4 1.4-1.4z" />
        </g>
    </pattern>
    <pattern id="hair_k" width="28.8" height="28.8" y="1000" overflow="visible" patternUnits="userSpaceOnUse" viewBox="1.4 -30.2 28.8 28.8">
        <defs>
            <path id="hair_c" d="M1.4-30.2h28.8v28.8H1.4z" />
        </defs>
        <clipPath id="hair_d">
            <use overflow="visible" xlink:href="#hair_c" />
        </clipPath>
        <g clip-path="url(#hair_d)">
            <g fill="#FFF">
                <path d="M30.2-31.6c.8 0 1.4.6 1.4 1.4 0 .8-.6 1.4-1.4 1.4s-1.4-.6-1.4-1.4c0-.8.6-1.4 1.4-1.4zM15.8-31.6c.8 0 1.4.6 1.4 1.4 0 .8-.6 1.4-1.4 1.4-.8 0-1.4-.6-1.4-1.4 0-.8.6-1.4 1.4-1.4zM30.2-17.2c.8 0 1.4.6 1.4 1.4s-.6 1.4-1.4 1.4-1.4-.6-1.4-1.4c0-.8.6-1.4 1.4-1.4zM15.8-17.2c.8 0 1.4.6 1.4 1.4s-.6 1.4-1.4 1.4c-.8 0-1.4-.6-1.4-1.4 0-.8.6-1.4 1.4-1.4zM8.6-24.4c.8 0 1.4.6 1.4 1.4 0 .8-.6 1.4-1.4 1.4-.8 0-1.4-.6-1.4-1.4 0-.8.6-1.4 1.4-1.4zM23-24.4c.8 0 1.4.6 1.4 1.4 0 .8-.6 1.4-1.4 1.4s-1.4-.6-1.4-1.4.6-1.4 1.4-1.4zM8.6-10c.8 0 1.4.6 1.4 1.4s-.6 1.4-1.4 1.4c-.8 0-1.4-.6-1.4-1.4 0-.8.6-1.4 1.4-1.4zM23-10c.8 0 1.4.6 1.4 1.4s-.6 1.4-1.4 1.4-1.4-.6-1.4-1.4.6-1.4 1.4-1.4z" />
            </g>
            <g fill="#FFF">
                <path d="M1.4-31.6c.8 0 1.4.6 1.4 1.4 0 .8-.6 1.4-1.4 1.4-.8.1-1.4-.6-1.4-1.4 0-.8.6-1.4 1.4-1.4zM1.4-17.2c.8 0 1.4.6 1.4 1.4s-.6 1.4-1.4 1.4S0-15 0-15.8s.6-1.4 1.4-1.4z" />
            </g>
            <g fill="#FFF">
                <path d="M30.2-2.8c.8 0 1.4.6 1.4 1.4S31 0 30.2 0s-1.4-.6-1.4-1.4c0-.8.6-1.4 1.4-1.4zM15.8-2.8c.8 0 1.4.6 1.4 1.4S16.6 0 15.8 0s-1.4-.6-1.4-1.4c0-.8.6-1.4 1.4-1.4z" />
            </g>
            <path fill="#FFF" d="M1.4-2.8c.8 0 1.4.6 1.4 1.4S2.2 0 1.4 0C.6.1 0-.6 0-1.4c0-.8.6-1.4 1.4-1.4z" />
        </g>
    </pattern>
    <g fill="#E9BB3D">
        <path d="M386.5 213.9c-8.6-9.7-17.4-21.4-23.1-29.1 4.9 11 10.8 23.4 16.8 34.2 2-1.7 4.1-3.4 6.3-5.1zM350.5 226.4c-2.8-2.5-13.8-11.2-17.1-13-1.9-1-12.2-16.1 13.4 20.4 0 0 2.2.6 3.7-7.4zM664.7 213.5c-3.3 1.7-13.9 10.5-16.8 13.1 1.4 7.9 3.4 7.2 3.4 7.2 25.5-36.5 15.3-21.4 13.4-20.3zM611.6 213.9c2.2 1.7 4.3 3.4 6.3 5.1 6.1-10.8 12-23.2 16.8-34.2-5.7 7.7-14.6 19.3-23.1 29.1z" />
    </g>
    <pattern id="hair_f" patternTransform="translate(-111189.703 52050.43) scale(.3974)" xlink:href="#hair_e" />
    <path fill="url(#hair_f)" d="M386.5 213.9c-8.6-9.7-17.4-21.4-23.1-29.1 4.9 11 10.8 23.4 16.8 34.2 2-1.7 4.1-3.4 6.3-5.1z" />
    <pattern id="hair_g" patternTransform="translate(-111189.703 52050.43) scale(.3974)" xlink:href="#hair_e" />
    <path fill="url(#hair_g)" d="M350.5 226.4c-2.8-2.5-13.8-11.2-17.1-13-1.9-1-12.2-16.1 13.4 20.4 0 0 2.2.6 3.7-7.4z" />
    <pattern id="hair_h" patternTransform="translate(-111189.703 52050.43) scale(.3974)" xlink:href="#hair_e" />
    <path fill="url(#hair_h)" d="M664.7 213.5c-3.3 1.7-13.9 10.5-16.8 13.1 1.4 7.9 3.4 7.2 3.4 7.2 25.5-36.5 15.3-21.4 13.4-20.3z" />
    <pattern id="hair_i" patternTransform="translate(-111189.703 52050.43) scale(.3974)" xlink:href="#hair_e" />
    <path fill="url(#hair_i)" d="M611.6 213.9c2.2 1.7 4.3 3.4 6.3 5.1 6.1-10.8 12-23.2 16.8-34.2-5.7 7.7-14.6 19.3-23.1 29.1z" />
    <path class="hair_fill" d="M680.4 277.9c20.2 3.2 34.3-10.3 33.7-11.1-1.1-1.5-10.1 8-27.5 8.1-15.4 0-21.5-9.7-28.4-9.7-67.9-114-238.1-126-319.1.3-64 19.2-62.8 80.5-59.3 91-.6 11.2.4 23.1 3.4 35.5-2.6 18.6 3 32.5 11.8 41.1-9.2-3.4-17.3-10.1-17.3-10.1 20.6 37 51 23.7 61 11 0 61.4-1.7 80.7-16.1 116.3-8.8 21.9 19.8 79.2-5.6 81.2-.2 1.3 9.9 4 13.9-11.4-1 44.1-29 43-28.9 44.4.1 1.2 15.4.4 24.5-14.7 46.5-5.4 26.8-201.4 21.9-248.5 39.6-42 33.6-79.2 60-105.6 17-17 46.8 7 90.7 7s73.7-24 90.7-7c26.8 26.8 20.2 64.5 61.4 107.1-5 48.2-24.4 247.1 23.6 247.1-10.4-22.8-7.8-41.1-3.6-56.6 3.2 19.1 17.6 17 17.6 16.1 0-1.8-14.6 1.9-14.9-25.2 16.5-53.2-12.9-10.3-13-148.3 18.2 18.9 60.2 1.1 53.8-43.9 12.6-51.9-10.2-94.5-34.3-114.1zm-400.2 73.9c-.5-29.9 9.2-53.7 35-71.9-16.6 14.6-32 40.1-35 71.9z" />
    <pattern id="hair_j" patternTransform="translate(-111189.703 52050.43) scale(.3974)" xlink:href="#hair_e" />
    <path fill="url(#hair_j)" d="M595.2 246.1c6.6-1.7 14.7-13.1 22.6-27.2-25.1-21.2-62.1-41.8-111.8-43.6 7.9 31.4 21.1 75.2 33.3 73.1 14-2.4 35.6-45.8 35.6-45.8s9.7 46.3 20.3 43.5zm-136.6 2.4c12.2 2.1 25.5-41.7 33.3-73.1-48.1 2.1-86.7 22.4-111.8 43.6 7.9 14.1 16.1 25.4 22.6 27.2 10.6 2.8 20.2-43.5 20.2-43.5s21.8 43.4 35.7 45.8zM653.2 405s31.2 30.2 57.3 17.7c0 0-17.3 33-48.7 14.7-9.4-5.6-8.6-32.4-8.6-32.4zm-308.4 0S317 435.3 285 416.5c0 0 31.7 35.8 59.8-11.5zm194.8-126.1c-33.3 1.6-40.5 19.8-40.5 19.8s-7.3-18.2-40.5-19.8M339.4 443.3s9.2-3.1 10.7-24.3c-13.5 14.8-11.3 13.9-10.7 24.3z" />
    <g>
        <pattern id="hair_l" patternTransform="matrix(.5 0 0 -.5 -15352.26 -15923.162)" xlink:href="#hair_k" />
        <path fill="url(#hair_l)" d="M674.7 564.3l-6.7-2c-9.8 51.5-5.8 54.1-11.5-25.7 18.4 17.3 18.2 27.7 18.2 27.7zm-349.8 0l14.2-6-.5 40.7c19.3-134.9 14.4-60.9-13.7-34.7zm24-285.4s-43 7.8-50.4 64.7c0 0-4.6 24.8-13.6 24.2 0 0 24.1-1.1 44.4-43.4 0 0-9.4 39.4-22.6 59.1 0 0 34.8-6.3 40.8-86.7 0 0-25.2 12.9-38.5 41.9 0 .1 4.7-36.6 39.9-59.8zm294.3 6.1s19.4 14.9 29.1 65.7c4.3 22.3 26.5 32.2 33.4 26.1 0 0-9.3-.6-19-41.7s-20.4-42.2-43.5-50.1z" />
    </g>
    <g class="hair_outline">
        <path d="M649.2 428.3c-.1-2.7-.5.4 4.3 4.9 2.2 2.1 7.5 5.5 8.3 4.1.5-.9-12.4-13.6-13.1-11.9-1.2 1.6-4 61.9-1.2 114.6 5.4 101.8 26.9 110.1 27.1 109.9.2-.3-2.5-2.4-5.2-7.2-17-29.1-19.8-112.3-20.2-168.5 5.5 53.7 26.5 77.2 27.7 76.1 4.5-3.7-22.6-.8-27.7-122zM350.7 425.2c-.4-.6-.2 36-5.2 65-8.3 47.3-24.1 59.2-22.9 60.2 2.3 2 25.9-31 29.1-88.3 1 32.5 1.2 80.9-4.9 122.2-8.1 54.8-23.3 64.4-21.9 65.6.5.4 16.9-14.5 25.1-65.1 11.5-71.3 1.4-164.3.7-159.6zM536.2 206.7c-7.2 15.3-9.3 32.3-8.2 32.5 1 .2 4.4-16.1 11.4-31 11.4-23.8 21.9-20.4 21.8-22.2 0-1-13.9-2.4-25 20.7zM458.6 248.5c1.1.2 3.1-12.8 3.4-15.2 6-39.6-25.4-56.4-16.7-47.4 21.6 22.9 11.1 62.1 13.3 62.6zM521.1 224.7c1.7-.2-2-18.2 5-40.3 1.3-4.1 2.3-6.6 1.9-6.9-1.5-1-12.4 18.1-8.9 40.2.2 1.3 1.3 7.1 2 7zM411.2 239.1c.9 0 2.4-9.2-1.1-20.2-3.2-9.6-11-13.3-11.4-11.9-.2.6 5.3 3.9 8.6 14.7 2.6 9.3 2.8 17.5 3.9 17.4zM714.8 392c-.2-.1-24.4 24.7-44.4-17.8-6.4-13.6-8.3-25.6-12.6-35.6-23.4-60.6-70.1-63.4-70.1-62-.1 1 15.3 1.5 32.8 14.8-23.1-10.9-51.5-4.1-51.1-2.5.1.5 4.6-.2 11.8-.5 71-2.6 70.6 55.1 86.4 87.3 21.4 44 49.6 17.2 47.2 16.3zM660.6 410.7c-4.5-3.5-6.9-6-7.3-5.7-.4.3 1.5 3.5 5.7 7.6 23.3 22.6 52.1 11.5 51.6 10.1-.8-2.5-23 9-50-12zM344.8 416.5c-2.5-1.3-4.8 18.1-41.5 16.7-5.1-.2-8.2-.6-8.3-.1-.1.5 2.9 1.7 8.1 2.6 32.6 5.3 43.4-18.4 41.7-19.2zM344.8 405c-1.2-1.3-17.1 16.7-40.7 15.6-11-.4-18.7-4.7-19.1-4.1-.5.7 7.5 6.4 18.9 7.3 24.2 2.2 41.7-18 40.9-18.8zM499 295.2c-11.2-17.1-40.5-17.8-40.5-16.3-.1 1.4 27.7 1.6 38.3 19.3 6.2 11.1-3.2-5.1 26.3-15.3 6.2-2.2 16.6-3.3 16.5-4-.1-1.4-29.3-.9-40.6 16.3zM365.4 308.4c11.8-34 30.8-31 30.9-31.7.2-1.2-13.5-1.7-24.2 12.7-20.1 26.5-13 65-38.4 96.2-23.1 28.2-49.6 5.2-50.5 6.4-.7 1 28.8 24.2 52.9-4.4 17.6-20.8 20.2-44.8 25.5-66.4 17.7-42.6 61.2-29.8 61.7-32.3.5-1.5-38.3-11-57.9 19.5z" />
    </g>
    <g>
        <path fill="#E9BB3D" d="M340 255.7l-.7-3.3c-7.9 0-44.9 26.5 159.7 26.5 197.4 0 171.1-26.5 159.9-26.5l-.7 3.3c-4 18.3-314.1 18.4-318.2 0z" />
        <g fill="#E9C64A">
            <path d="M646.2 174.7c6.2-3.4 4.6-7 1.8-15.6.7-.3 1.2-.7 1.6-1.4 2.8 1.9 7 4.5 8.6 4.6 2.4.2 4.8-3.9 4.9-4.8.1-.8-1.4-5.3-3.8-5.7-1.6-.2-6.2 1.5-9.3 2.7-.3-.8-.6-1.3-1.3-1.7 1.8-3.2 4.4-7.9 4.6-9.9.3-3-3.6-6.4-4.4-6.6-.9-.2-5.6 1.4-5.9 4.6-.2 2.1 1.5 7.8 2.7 11.5-.8.3-1.3.7-1.7 1.4-3.2-2.1-8.2-5.3-10.4-5.6-3.5-.5-6.9 4.4-7 5.5s2.3 6.6 5.8 6.8c2.2.1 7.8-1.9 11.3-3.4.3.8.7 1.3 1.3 1.7-2 3.4-4.8 8.6-5 10.7-.9 9-29.5 72.6-44.7 76.6-9.5 2.5-19.2-38.2-18.6-37.3.8 1.1 3 .7 3.3.5s1.3-2.3.5-3.3c-.8-1.1-5.4-3.3-5.4-3.3s-5.1.8-6.1 1.6c-1.1.8-.7 3-.5 3.3s2.3 1.3 3.3.5c.6-.4 1.6-2.1 2.3-3.5-4.4 8.4-22.4 41.8-34.6 43.9-13.8 2.4-28.9-53.6-36.1-84.4 3.1-2.9 3-4.8-2.5-16 .8-.4 1.4-1 1.8-1.8 3.9 1.9 9.8 4.6 12.1 4.6 3.5 0 6.4-5.3 6.4-6.4 0-1.1-2.9-6.4-6.4-6.4-2.3 0-8.2 2.7-12.1 4.6-.4-.8-1-1.4-1.8-1.8 1.9-3.9 4.6-9.8 4.6-12.1 0-3.5-5.3-6.4-6.4-6.4s-6.4 2.9-6.4 6.4c0 2.3 2.7 8.2 4.6 12.1-.8.4-1.4 1-1.8 1.8-3.9-1.9-9.8-4.6-12.1-4.6-3.5 0-6.4 5.3-6.4 6.4 0 1.1 2.9 6.4 6.4 6.4 2.3 0 8.2-2.7 12.1-4.6.4.8 1 1.4 1.8 1.8-5.2 10.6-5.8 12.9-2.5 16-7.2 30.8-22.2 86.8-36.1 84.4-12.2-2.1-30.2-35.4-34.6-43.9.7 1.4 1.7 3 2.3 3.5 1.1.8 3.1-.2 3.3-.5.2-.3.6-2.6-.5-3.3-1.1-.8-6.1-1.6-6.1-1.6s-4.6 2.2-5.4 3.3.2 3.1.5 3.3 2.6.6 3.3-.5c.3-.4-8.9 39.9-18.6 37.3-15.2-4-43.8-67.6-44.7-76.6-.2-2.1-3.1-7.3-5-10.7.7-.5 1.1-1 1.3-1.7 3.6 1.4 9.1 3.5 11.3 3.4 3.5-.2 5.9-5.7 5.8-6.8s-3.6-6-7-5.5c-2.2.3-7.2 3.5-10.4 5.6-.4-.7-.9-1.1-1.7-1.4 1.2-3.7 3-9.4 2.7-11.5-.3-3.2-5.1-4.8-5.9-4.6-.9.2-4.7 3.6-4.4 6.6.2 1.9 2.8 6.7 4.6 9.9-.6.5-1 1-1.3 1.7-3.1-1.3-7.7-3-9.3-2.7-2.4.3-3.9 4.8-3.8 5.7.1.8 2.4 5 4.9 4.8 1.6-.1 5.8-2.7 8.6-4.6.4.7.9 1.1 1.6 1.4-2.8 8.5-4.5 12.2 1.8 15.6.1 6.1.9 59.9-5.1 59.1l-17.1-24.3 10.2 46.2c4 18.3 314.1 18.4 318.2 0l10.2-46.2-17.1 24.3c-6 .8-5.3-53-5.1-59.1z" />
            <path d="M419.7 197.2c-1.1-.8-3.1.2-3.3.5-.2.3-.6 2.6.5 3.3 1.1.8 6.1 1.6 6.1 1.6s-2.2-4.6-3.3-5.4z" />
            <path d="M428.4 199.3c.8-1.1-.2-3.1-.5-3.3s-2.6-.6-3.3.5c-.8 1.1-1.6 6.1-1.6 6.1s4.7-2.2 5.4-3.3zM326.8 206.3c-1.3-.5-2.3 2.5-.7 3.3.7.3 3.7-.1 3.7-.1s-2.3-2.9-3-3.2z" />
            <path d="M330.1 214.7c.3-1-.3-5.2-.3-5.2-5.3 6-.3 7.1.3 5.2z" />
            <path d="M333.4 213.5c1 .5 2.6-.6 2.8-1 .1-.4-.2-2.6-1.4-3.1-1.1-.4-5 .2-5 .2s2.5 3.3 3.6 3.9zM331.6 202.7c-.3-.1-1.9.6-2.2 1.7-.3 1.1.3 5.2.3 5.2s2.7-3.1 3-4.3c.4-1.2-.8-2.6-1.1-2.6zM581.6 197.7c-.2-.3-2.3-1.3-3.3-.5-1.1.8-3.3 5.4-3.3 5.4s5.1-.8 6.1-1.6c1.1-.7.8-3 .5-3.3zM570.1 196c-.3.2-1.3 2.3-.5 3.3.8 1.1 5.4 3.3 5.4 3.3s-.8-5.1-1.6-6.1c-.8-1.1-3-.8-3.3-.5zM668.3 209.5s3 .5 3.7.1c1.2-.6 1.4-6.8-3.7-.1zM668 214.7c.5 1.7 5.8 1.1.3-5.2 0 0-.6 4.2-.3 5.2zM663.3 209.4c-1.1.4-2.8 3.7.4 4.2.8.1 1.5-.1 4.5-4.1.1 0-3.8-.6-4.9-.1z" />
            <path d="M666.4 202.6c-.3.1-1.6 1.4-1.2 2.6.3 1.2 3 4.3 3 4.3.4-2.8 1.2-6.9-1.8-6.9z" />
        </g>
        <path fill="#1544BC" d="M501.1 146.5c2.7-2.7-1.4-6.8-4.1-4.1-2.7 2.7 1.3 6.8 4.1 4.1zM353.1 157.4c2-2.6-1.7-5.9-3.7-3.3-1.9 2.6 1.7 5.8 3.7 3.3zM648.2 157.7c2.4-2.2-.5-6.1-3-4-2.4 2.2.6 6.2 3 4z" />
        <path fill="#E9BB3D" d="M513.3 250.6c0-18.9-28.6-18.9-28.6 0s28.6 19 28.6 0z" />
        <path fill="#1544BC" d="M499 260.7c13.4 0 13.4-20.2 0-20.2-13.3 0-13.4 20.2 0 20.2z" />
        <path fill="#E9BB3D" d="M576.7 254.7c0-9.4-14.3-9.5-14.3 0s14.3 9.5 14.3 0z" />
        <path fill="#1544BC" d="M574.6 254.7c0-6.7-10.1-6.7-10.1 0s10.1 6.7 10.1 0z" />
        <path fill="#E9BB3D" d="M623.7 247.6c-1.8 9.3 10.2 11.5 12 2.3 1.7-9.4-10.3-11.6-12-2.3z" />
        <path fill="#1544BC" d="M629.2 253.7c5.6 1.1 7.5-8.9 1.9-9.9-5.6-1.1-7.5 8.9-1.9 9.9z" />
        <path fill="#E9BB3D" d="M657.5 243.6c-1.2 6.1 1.8 9 4.3 4.2l1.3-7c-.7-4.9-4.4-2.9-5.6 2.8z" />
        <path fill="#1544BC" d="M662.2 239.9c-2.5-.5-4.3 8-1.7 8.6 2.4.5 4.2-8.1 1.7-8.6z" />
        <path fill="#E9BB3D" d="M435.6 254.7c0-9.4-14.3-9.5-14.3 0s14.3 9.5 14.3 0z" />
        <path fill="#1544BC" d="M433.5 254.7c0-6.7-10.1-6.7-10.1 0s10.1 6.7 10.1 0z" />
        <path fill="#E9BB3D" d="M369.7 255.7c7.9-1.5 5.3-15.5-2.6-14-8 1.5-5.3 15.5 2.6 14z" />
        <path fill="#1544BC" d="M368.8 253.7c5.6-1.1 3.7-11-1.9-9.9-5.6 1.1-3.7 11 1.9 9.9z" />
        <path fill="#E9BB3D" d="M339.1 250.2c3.5-.7 1.1-12.8-2.5-12.1-1.1.2-1.5 1.7-1.6 2.7l1.2 7c.6 1.1 1.7 2.6 2.9 2.4z" />
        <path fill="#1544BC" d="M337.6 248.5c2.5-.5.8-9.1-1.7-8.6-2.6.5-.8 9.1 1.7 8.6z" />
    </g>
</svg>