<?xml version="1.0" encoding="UTF-8" standalone="no"?>
<svg
   width="1000"
   height="1000"
   version="1.1"
   id="svg22"
   sodipodi:docname="OG Color YOUR COLLECTION paths.svg"
   inkscape:version="1.1.1 (3bf5ae0d25, 2021-09-20)"
   xmlns:inkscape="http://www.inkscape.org/namespaces/inkscape"
   xmlns:sodipodi="http://sodipodi.sourceforge.net/DTD/sodipodi-0.dtd"
   xmlns="http://www.w3.org/2000/svg"
   xmlns:svg="http://www.w3.org/2000/svg">
  <defs
     id="defs26" />
  <sodipodi:namedview
     id="namedview24"
     pagecolor="#ffffff"
     bordercolor="#666666"
     borderopacity="1.0"
     inkscape:pageshadow="2"
     inkscape:pageopacity="0.0"
     inkscape:pagecheckerboard="0"
     showgrid="false"
     inkscape:zoom="0.873"
     inkscape:cx="498.85452"
     inkscape:cy="500.57274"
     inkscape:window-width="3840"
     inkscape:window-height="2054"
     inkscape:window-x="-11"
     inkscape:window-y="-11"
     inkscape:window-maximized="1"
     inkscape:current-layer="svg22"
     showguides="true"
     inkscape:guide-bbox="true">
    <sodipodi:guide
       position="-387.17068,500.57274"
       orientation="0,-1"
       id="guide13160" />
    <sodipodi:guide
       position="499.42726,1398.6254"
       orientation="1,0"
       id="guide13162" />
  </sodipodi:namedview>
  <mask
     id="_mask">
    <circle
       cx="500"
       cy="500"
       r="450"
       fill="white"
       stroke="none"
       id="circle2" />
  </mask>
  <path
     id="path-0"
     d="M 504.28 105.614 C 804.145 105.541 991.639 430.111 841.768 689.836 C 691.898 949.563 317.067 949.655 167.072 690 C 26.805 447.185 181.324 140.169 459.907 108.16 Z"
     style="fill: none;" />
  <circle
     cx="500"
     cy="500"
     r="450"
     fill="rgb(255,255,255)"
     id="circle6" />
  <path
     id="circle8"
     mask="url(#_mask)"
     style="fill:#ffffff;stroke:#000000;stroke-width:130;stroke-linecap:square;stroke-miterlimit:3"
     d="M 950,500 A 450,450 0 0 1 500,950 450,450 0 0 1 50,500 450,450 0 0 1 500,50 450,450 0 0 1 950,500 Z" />
  <g
     aria-label=" • YOUR COLLECTION • YOUR COLLECTION • YOUR COLLECTION • YOUR COLLECTION"
     transform="matrix(1.009427,0,0,1.009427,-8.6461,0.737298)"
     id="text20"
     style="font-weight:bold;font-size:62.8211px;font-family:Arial, sans-serif;-inkscape-font-specification:'Arial, sans-serif, Bold';letter-spacing:-3.8px;word-spacing:5.8px;white-space:pre;fill:#ffffff">
    <path
       d="m 514.96022,83.437849 q -0.0123,3.772927 -2.68961,6.432901 -2.64657,2.629399 -6.38882,2.617224 -3.77293,-0.01227 -6.4329,-2.689613 -2.6293,-2.677238 -2.61712,-6.419491 0.0122,-3.742252 2.65873,-6.371651 2.67734,-2.659974 6.45027,-2.647699 3.74225,0.01217 6.37165,2.658739 2.66007,2.646664 2.6478,6.41959 z"
       id="path907" />
    <path
       d="m 547.54886,107.87134 2.23106,-18.79412 -13.28731,-27.802736 10.56979,1.254746 8.41159,18.914596 12.39292,-16.444881 10.38703,1.23305 -19.49541,23.972861 -2.22383,18.733204 z"
       id="path909" />
    <path
       d="m 576.83224,88.999322 q 1.52982,-6.698587 4.57151,-10.786476 2.26013,-3.007816 5.43974,-5.081965 3.20952,-2.06732 6.58334,-2.649764 4.49302,-0.798805 9.84591,0.423688 9.68903,2.21278 14.11774,9.548502 4.45862,7.342552 2.01363,18.04833 -2.4245,10.616063 -9.56879,15.308743 -7.13746,4.66278 -16.79659,2.45683 -9.77874,-2.23327 -14.19121,-9.50236 -4.40563,-7.298985 -2.01528,-17.765528 z m 9.18914,1.783974 q -1.70057,7.446198 0.85743,12.089264 2.56482,4.61317 7.8579,5.822 5.29308,1.20883 9.53963,-1.81728 4.28329,-3.0492 6.02483,-10.674821 1.72105,-7.535911 -0.75147,-12.00214 -2.44262,-4.459399 -7.91513,-5.70921 -5.4725,-1.249811 -9.68232,1.753233 -4.20299,2.973139 -5.93087,10.538954 z"
       id="path911" />
    <path
       d="m 632.38295,79.029923 8.5674,3.006483 -8.06468,22.981484 q -1.91968,5.4704 -2.17009,7.20299 -0.3642,2.79794 1.13218,5.111 1.53548,2.29428 5.12453,3.55375 3.64694,1.27979 6.01736,0.4537 2.38057,-0.85503 3.51862,-2.89379 1.13805,-2.03875 2.90538,-7.07499 l 8.23735,-23.473534 8.56741,3.006483 -7.82092,22.286831 q -2.68146,7.6412 -4.48323,10.55231 -1.80177,2.91112 -4.4449,4.42171 -2.61419,1.52075 -6.19721,1.72626 -3.57285,0.17658 -8.60909,-1.59075 -6.07823,-2.13298 -8.74558,-4.6294 -2.62825,-2.51521 -3.66963,-5.38379 -1.03122,-2.89752 -0.74675,-5.5609 0.44042,-3.94148 2.93905,-11.06169 z"
       id="path913" />
    <path
       d="m 656.72791,135.54338 19.42764,-40.555437 17.23468,8.256087 q 6.50104,3.11425 8.90334,5.62554 2.44321,2.49688 2.87524,6.13908 0.43203,3.6422 -1.29074,7.23852 -2.18661,4.56456 -6.30125,6.26682 -4.10139,1.67459 -9.8116,-0.10848 1.91363,2.82139 2.7409,5.49651 0.85494,2.68837 1.52121,8.82364 l 1.16174,10.28404 -9.79306,-4.69125 -1.69266,-11.66078 q -0.88758,-6.24129 -1.46638,-8.0151 -0.56554,-1.80147 -1.65371,-2.86694 -1.07492,-1.09314 -3.89665,-2.44486 l -1.65984,-0.79513 -8.11031,16.93037 z m 19.39986,-19.48112 6.05842,2.90222 q 5.89243,2.82271 7.59716,3.02712 1.70473,0.20441 3.11775,-0.61524 1.41301,-0.81965 2.28765,-2.64548 0.98066,-2.04713 0.47045,-3.8221 -0.4693,-1.78938 -2.30208,-3.0755 -0.92965,-0.6154 -5.90917,-3.00078 l -6.39038,-3.06125 z"
       id="path915" />
    <path
       d="m 743.90992,166.49262 5.64245,7.31142 q -5.85959,4.89497 -11.78658,5.15129 -5.88431,0.2486 -11.8324,-3.8776 -7.3595,-5.10529 -8.61852,-13.40781 -1.24153,-8.32773 4.8079,-17.04824 6.3991,-9.22458 14.69436,-11.01128 8.31274,-1.81191 16.07551,3.57312 6.77981,4.70317 8.23411,11.64786 0.87689,4.11755 -0.94009,9.42761 l -8.60858,-3.35852 q 1.33787,-3.32781 0.39989,-6.44242 -0.91277,-3.09713 -3.88682,-5.16023 -4.10821,-2.84987 -8.72461,-1.68439 -4.5912,1.18297 -9.17198,7.78636 -4.86052,7.00665 -4.40324,11.72908 0.45728,4.72244 4.48988,7.51986 2.97405,2.0631 6.42766,1.65895 3.45361,-0.40416 7.20106,-3.81506 z"
       id="path917" />
    <path
       d="m 758.14028,169.63357 q 4.52311,-5.17232 9.13944,-7.32922 3.41609,-1.57654 7.19902,-1.89507 3.80602,-0.29833 7.05264,0.78859 4.33459,1.4271 8.46783,5.04154 7.4814,6.54235 7.90232,15.10092 0.44402,8.57877 -6.78487,16.84525 -7.16832,8.19721 -15.68351,8.94131 -8.495,0.72101 -15.95331,-5.80115 -7.55067,-6.60293 -7.98889,-15.09512 -0.41802,-8.51529 6.64933,-16.59705 z m 7.2446,5.92779 q -5.02792,5.74959 -4.97731,11.05043 0.0708,5.27774 4.15787,8.8518 4.08706,3.57406 9.26075,2.92329 5.21698,-0.65368 10.36605,-6.54182 5.08849,-5.81887 5.02928,-10.92348 -0.0361,-5.08442 -4.26172,-8.77963 -4.22561,-3.69522 -9.35602,-3.04734 -5.11021,0.62479 -10.2189,6.46675 z"
       id="path919" />
    <path
       d="m 778.64255,217.82273 32.62209,-30.41392 6.19155,6.64108 -27.08036,25.24732 15.39521,16.51297 -5.54171,5.1666 z"
       id="path921" />
    <path
       d="m 802.03685,243.29549 35.15934,-27.44136 5.58641,7.1576 -29.1866,22.77973 13.89054,17.7973 -5.97274,4.66163 z"
       id="path923" />
    <path
       d="m 823.03766,270.4736 37.83182,-24.30904 18.02451,28.05129 -6.39993,4.11231 -13.11627,-20.41267 -8.387,5.38911 12.20427,18.99333 -6.37412,4.09573 -12.20427,-18.99334 -10.29666,6.61618 13.58056,21.13524 -6.37412,4.09572 z"
       id="path925" />
    <path
       d="m 871.28213,320.78659 1.50655,9.11177 q -7.47908,1.53585 -12.82053,-1.04559 -5.3002,-2.56803 -8.58455,-9.01926 -4.06367,-7.98203 -1.24021,-15.89057 2.85081,-7.92246 12.30897,-12.73764 10.00487,-5.09352 18.15695,-2.73824 8.17941,2.34136 12.46575,10.76076 3.7436,7.35331 1.73523,14.15847 -1.17789,4.04174 -5.29314,7.85787 l -5.9911,-7.0352 q 2.75444,-2.29723 3.40351,-5.4846 0.66299,-3.16003 -0.97919,-6.38565 -2.26842,-4.45572 -6.8862,-5.61571 -4.60387,-1.13265 -11.76583,2.51352 -7.59933,3.86885 -9.43328,8.24459 -1.83394,4.37575 0.39273,8.74946 1.64217,3.22562 4.87527,4.5054 3.2331,1.27979 8.14907,0.0506 z"
       id="path927" />
    <path
       d="m 865.68705,349.30928 34.76647,-13.68083 -4.88601,-12.4166 7.07889,-2.78559 13.08552,33.25364 -7.07889,2.78559 -4.87478,-12.38805 -34.76646,13.68083 z"
       id="path929" />
    <path
       d="m 874.10454,371.96925 42.77258,-13.88104 2.80272,8.6362 -42.77258,13.88104 z"
       id="path931" />
    <path
       d="m 899.926,378.08219 q 6.67593,-1.62584 11.69233,-0.73227 3.70088,0.67724 6.97758,2.59434 3.28395,1.9469 5.31309,4.70453 2.72297,3.66207 4.02219,8.99686 2.35167,9.65626 -2.23069,16.897 -4.5751,7.27054 -15.24467,9.86898 -10.58016,2.57667 -17.97146,-1.71645 -7.36149,-4.30039 -9.7059,-13.92684 -2.37344,-9.74567 2.15657,-16.94209 4.55982,-7.20368 14.99096,-9.74406 z m 2.51179,9.01742 q -7.42101,1.8073 -10.43093,6.17099 -2.98013,4.35642 -1.69542,9.6316 1.28471,5.27518 5.8899,7.72116 4.64226,2.46851 12.24209,0.61767 7.51042,-1.82908 10.40037,-6.03726 2.8972,-4.17838 1.56894,-9.63238 -1.32826,-5.454 -5.89639,-7.87743 -4.53833,-2.43068 -12.07856,-0.59435 z"
       id="path933" />
    <path
       d="m 889.08603,429.11586 44.60443,-5.71154 1.12204,8.76267 -27.44939,22.06975 29.787,-3.81419 1.0714,8.36714 -44.60443,5.71154 -1.15711,-9.0365 26.78466,-21.70632 -29.0872,3.72459 z"
       id="path935" />
    <path
       d="m 916.68792,505.37564 q -3.77295,-0.005 -6.43843,-2.67637 -2.63484,-2.64115 -2.63036,-6.38342 0.005,-3.77294 2.67637,-6.43842 2.67182,-2.6348 6.41409,-2.63033 3.74227,0.004 6.37711,2.64562 2.66547,2.67186 2.66096,6.4448 -0.004,3.74227 -2.64562,6.37711 -2.64118,2.66552 -6.41412,2.66101 z"
       id="path937" />
    <path
       d="m 892.16616,538.00482 18.78244,2.32733 27.87046,-13.14466 -1.30889,10.56322 -18.95745,8.31456 16.38115,12.47702 -1.28626,10.38057 -23.87264,-19.61799 -18.72156,-2.31979 z"
       id="path939" />
    <path
       d="m 910.85734,567.44158 q 6.6864,1.58223 10.75035,4.65583 2.99003,2.28361 5.03922,5.47936 2.04212,3.22561 2.59813,6.60389 0.76361,4.49914 -0.50076,9.84229 -2.28857,9.67141 -9.65874,14.04255 -7.37724,4.40099 -18.06355,1.87225 -10.59675,-2.50754 -15.23335,-9.68835 -4.60675,-7.17376 -2.32524,-16.81531 2.30976,-9.76096 9.61317,-14.11638 7.33326,-4.34835 17.78077,-1.87613 z m -1.85587,9.17489 q -7.43266,-1.75881 -12.09561,0.76275 -4.63311,2.52863 -5.88334,7.81208 -1.25024,5.28346 1.74253,9.55357 3.01557,4.30703 10.62732,6.10822 7.52221,1.78 12.00766,-0.65747 4.47839,-2.40763 5.77101,-7.87019 1.29262,-5.46255 -1.67738,-9.69575 -2.94014,-4.22614 -10.49219,-6.01321 z"
       id="path941" />
    <path
       d="m 920.38482,623.03227 -3.06721,8.54585 -22.92367,-8.22759 q -5.45664,-1.95845 -7.1874,-2.22115 -2.79529,-0.38405 -5.11891,1.09588 -2.30512,1.51916 -3.59004,5.09918 -1.30563,3.63776 -0.49639,6.01398 0.83812,2.38659 2.86875,3.53908 2.03062,1.15249 7.0542,2.95551 l 23.41447,8.40374 -3.06721,8.54586 -22.23076,-7.9789 q -7.62198,-2.73562 -10.52023,-4.55801 -2.89826,-1.82238 -4.39005,-4.47617 -1.50216,-2.62492 -1.68224,-6.2093 -0.15121,-3.57401 1.65181,-8.59759 2.17606,-6.06293 4.69136,-8.7125 2.5338,-2.61033 5.40969,-3.63132 2.90477,-1.01063 5.56606,-0.70727 3.93826,0.46838 11.04056,3.01748 z"
       id="path943" />
    <path
       d="m 863.69374,646.9694 40.50027,19.54238 -8.30485,17.21123 q -3.13264,6.4922 -5.65072,8.88738 -2.50378,2.43614 -6.14719,2.85785 -3.64341,0.42172 -7.23484,-1.31123 -4.55836,-2.19952 -6.24896,-6.31896 -1.66297,-4.10612 0.13626,-9.81126 -2.82679,1.90563 -5.50425,2.72533 -2.69078,0.84732 -8.82792,1.49622 l -10.28728,1.13262 4.71896,-9.77973 11.66552,-1.65965 q 6.24378,-0.86991 8.01922,-1.44368 1.80306,-0.56044 2.87162,-1.64559 1.09617,-1.07182 2.45588,-3.88971 l 0.79982,-1.65758 -16.90734,-8.15822 z m 19.42611,19.45493 -2.91936,6.05018 q -2.83937,5.88442 -3.04861,7.58856 -0.20924,1.70415 0.60641,3.11948 0.81565,1.41533 2.63899,2.29513 2.04435,0.98645 3.82075,0.48127 1.7907,-0.46423 3.08201,-2.29337 0.61803,-0.9279 3.0175,-5.90064 l 3.07933,-6.3817 z"
       id="path945" />
    <path
       d="m 832.94906,734.15627 -7.27064,5.6949 q -4.93699,-5.82421 -5.23595,-11.74921 -0.29093,-5.88237 3.79237,-11.85999 5.05222,-7.39604 13.34547,-8.71475 8.31858,-1.30141 17.08238,4.68512 9.27038,6.33258 11.11672,14.61477 1.87166,8.29949 -3.45739,16.10079 -4.65427,6.81348 -11.58832,8.3177 -4.11113,0.90649 -9.43412,-0.87224 l 3.2965,-8.63252 q 3.33735,1.31389 6.44513,0.35353 3.09048,-0.93503 5.13213,-3.92384 2.82025,-4.12861 1.62158,-8.7365 -1.21597,-4.58257 -7.85214,-9.11573 -7.04143,-4.80999 -11.76046,-4.31875 -4.71902,0.49125 -7.48736,4.54387 -2.04165,2.98881 -1.61266,6.43943 0.42899,3.45061 3.86676,7.17342 z"
       id="path947" />
    <path
       d="m 829.96993,748.38262 q 5.21592,4.47276 7.41747,9.06796 1.60958,3.40065 1.96476,7.18031 0.33522,3.80295 -0.72018,7.05996 -1.38502,4.34822 -4.95923,8.5163 -6.46952,7.54447 -15.02361,8.04834 -8.57405,0.52715 -16.91022,-6.62127 -8.26632,-7.08852 -9.09292,-15.5961 -0.80332,-8.48761 5.64623,-16.00879 6.52943,-7.61432 15.01698,-8.13484 8.51083,-0.50055 16.66072,6.48813 z m -5.85728,7.30172 q -5.79807,-4.97195 -11.09816,-4.86995 -5.27681,0.12196 -8.81109,4.24347 -3.53427,4.12151 -2.83337,9.28865 0.70421,5.2104 6.64199,10.30215 5.86792,5.03185 10.97171,4.92316 5.08383,-0.0854 8.73792,-4.34663 3.65408,-4.26122 2.9565,-9.38511 -0.6743,-5.10392 -6.5655,-10.15574 z"
       id="path949" />
    <path
       d="m 781.98779,769.35685 30.68693,32.3654 -6.58882,6.24713 -25.47396,-26.86729 -16.38303,15.53342 -5.21298,-5.49812 z"
       id="path951" />
    <path
       d="m 756.70929,792.96275 27.63068,35.01075 -7.12736,5.62496 -22.93688,-29.06326 -17.72209,13.98636 -4.69379,-5.94749 z"
       id="path953" />
    <path
       d="m 729.64051,814.1061 24.36452,37.79612 -28.02481,18.06565 -4.12169,-6.39389 20.3934,-13.14621 -5.40141,-8.37908 -18.97541,12.23212 -4.10507,-6.3681 18.9754,-12.23213 -6.63127,-10.28693 -21.11529,13.61156 -4.10508,-6.36811 z"
       id="path955" />
    <path
       d="m 679.27691,862.34159 -9.11568,1.48268 q -1.51626,-7.48307 1.07916,-12.81775 2.5819,-5.29346 9.04171,-8.56089 7.99265,-4.04276 15.89377,-1.19859 7.91497,2.87154 12.70536,12.34228 5.0673,10.01818 2.69068,18.16406 -2.36278,8.17325 -10.79338,12.43753 -7.36309,3.72432 -14.16296,1.69814 -4.03865,-1.18847 -7.84398,-5.31371 l 7.05086,-5.97265 q 2.29001,2.76045 5.47567,3.41787 3.15829,0.67126 6.38819,-0.96246 4.46165,-2.25675 5.63373,-6.87148 1.14471,-4.60088 -2.4827,-11.77237 -3.84893,-7.60944 -8.21986,-9.45483 -4.37092,-1.8454 -8.75046,0.36981 -3.2299,1.63372 -4.51815,4.86345 -1.28824,3.22974 -0.072,8.14891 z"
       id="path957" />
    <path
       d="m 650.74956,856.62725 13.49059,34.84073 12.44312,-4.81807 2.74686,7.09401 -33.32468,12.90356 -2.74685,-7.09401 12.41451,-4.80699 -13.49059,-34.84073 z"
       id="path959" />
    <path
       d="m 628.04033,864.91107 13.60318,42.86176 -8.65422,2.74662 -13.60317,-42.86176 z"
       id="path961" />
    <path
       d="m 621.75754,890.68822 q 1.58213,6.68643 0.65576,11.69687 -0.70145,3.69637 -2.63994,6.96045 -1.96835,3.27115 -4.7392,5.2822 -3.67981,2.69895 -9.02298,3.96324 -9.67144,2.28843 -16.88204,-2.3412 -7.24045,-4.62258 -9.76903,-15.30892 -2.50739,-10.5968 1.83401,-17.95984 4.34846,-7.3332 13.99004,-9.61457 9.76099,-2.30962 16.92762,2.26738 7.17368,4.60685 9.64576,15.05439 z m -9.03366,2.45274 q -1.7587,-7.43268 -6.1026,-10.47109 -4.33684,-3.00857 -9.62031,-1.7584 -5.28347,1.25016 -7.75952,5.83925 -2.49885,4.62601 -0.69776,12.23779 1.77989,7.52223 5.96908,10.43964 4.15933,2.92448 9.6219,1.63194 5.46257,-1.29254 7.91584,-5.84472 2.46033,-4.52233 0.67337,-12.07441 z"
       id="path963" />
    <path
       d="m 570.79568,879.50772 5.49728,44.63134 -8.76796,1.07996 -21.93768,-27.55506 3.6711,29.80497 -8.37218,1.0312 -5.49727,-44.63134 9.04195,-1.1137 21.57744,26.88859 -3.58486,-29.10475 z"
       id="path965" />
    <path
       d="m 494.50305,906.87838 q 0.006,-3.77294 2.67957,-6.43709 2.64245,-2.63352 6.38472,-2.62719 3.77294,0.006 6.43709,2.67957 2.63348,2.67313 2.62714,6.4154 -0.006,3.74226 -2.64879,6.37579 -2.67318,2.66415 -6.44612,2.65776 -3.74227,-0.006 -6.37579,-2.64879 -2.66421,-2.6425 -2.65782,-6.41545 z"
       id="path967" />
    <path
       d="m 461.87948,882.43516 -2.24141,18.79289 13.27198,27.81006 -10.56909,-1.26058 -8.40118,-18.91923 -12.40197,16.43805 -10.38635,-1.23877 19.50862,-23.96211 2.23415,-18.73198 z"
       id="path969" />
    <path
       d="m 432.61072,901.28507 q -1.52672,6.6993 -4.56652,10.78859 -2.25873,3.00887 -5.43738,5.08449 -3.20856,2.06881 -6.58211,2.65281 -4.49265,0.80089 -9.84611,-0.41912 -9.69005,-2.20829 -14.12216,-9.54196 -4.46202,-7.34048 -2.022,-18.04739 2.41958,-10.61719 9.5617,-15.31318 7.1353,-4.66608 16.79544,-2.46461 9.77978,2.22874 14.19561,9.49577 4.40902,7.29695 2.02353,17.7646 z m -9.18997,-1.77971 q 1.69711,-7.44699 -0.86303,-12.08887 -2.56696,-4.61198 -7.8606,-5.81836 -5.29364,-1.20638 -9.53879,1.82171 -4.28188,3.05118 -6.01988,10.67761 -1.71756,7.53671 0.75703,12.00179 2.44469,4.45826 7.91777,5.70554 5.47309,1.24727 9.68152,-1.75772 4.20161,-2.97509 5.92598,-10.5417 z"
       id="path971" />
    <path
       d="m 377.15545,911.31815 -8.57523,-2.98408 8.00459,-23.00248 q 1.90538,-5.47541 2.15126,-7.20864 0.35688,-2.79888 -1.14554,-5.10803 -1.54147,-2.29026 -5.1338,-3.54034 -3.65027,-1.27025 -6.01852,-0.43797 -2.37834,0.86125 -3.51105,2.90297 -1.13272,2.04172 -2.88687,7.08257 l -8.17598,23.49498 -8.57523,-2.98408 7.76264,-22.30719 q 2.66147,-7.64818 4.45563,-10.564 1.79416,-2.91582 4.43333,-4.43331 2.61021,-1.52758 6.19267,-1.74246 3.57238,-0.18591 8.61323,1.56825 6.08378,2.11708 8.75764,4.60653 2.63482,2.50833 3.68369,5.37418 1.03879,2.89481 0.76128,5.55892 -0.43011,3.94263 -2.91012,11.06934 z"
       id="path973" />
    <path
       d="m 352.65994,854.87812 -19.25434,40.63799 -17.26976,-8.18244 q -6.51428,-3.08647 -8.92728,-5.58748 -2.45385,-2.48642 -2.90142,-6.12675 -0.44758,-3.64032 1.25984,-7.24396 2.16709,-4.57386 6.27443,-6.29366 4.0942,-1.69208 9.81198,0.0666 -1.92566,-2.81319 -2.76434,-5.48476 -0.86641,-2.6847 -1.55886,-8.81707 l -1.20564,-10.27899 9.813,4.64942 1.74243,11.65344 q 0.91421,6.23745 1.50057,8.00876 0.57323,1.79904 1.66594,2.85986 1.07958,1.08855 3.90705,2.42821 l 1.66322,0.78803 8.03797,-16.96484 z m -19.31652,19.56375 -6.07075,-2.87633 q -5.90443,-2.79753 -7.61002,-2.99466 -1.70559,-0.19714 -3.11509,0.62854 -1.4095,0.82568 -2.27634,2.65522 -0.97191,2.0513 -0.45412,3.82408 0.47693,1.78735 2.31518,3.06564 0.93227,0.61142 5.92192,2.97553 l 6.4034,3.03394 z"
       id="path975" />
    <path
       d="m 265.33602,824.31873 -5.67344,-7.2874 q 5.83875,-4.9198 11.7646,-5.20128 5.8832,-0.27358 11.84876,3.82732 7.38111,5.07401 8.67536,13.37111 1.27687,8.32238 -4.73548,17.06849 -6.35988,9.25167 -14.64748,11.07358 -8.30497,1.84718 -16.09053,-3.50485 -6.79972,-4.67434 -8.28348,-11.6128 -0.89437,-4.11379 0.90005,-9.43151 l 8.62276,3.32194 q -1.32373,3.33346 -0.37254,6.44406 0.92591,3.09323 3.90869,5.14368 4.12028,2.83241 8.73169,1.64734 4.58613,-1.20245 9.13884,-7.82523 4.83073,-7.02722 4.3534,-11.74767 -0.47732,-4.72045 -4.52176,-7.50073 -2.98278,-2.05045 -6.43464,-1.63164 -3.45187,0.41881 -7.1848,3.84559 z"
       id="path977" />
    <path
       d="m 251.058,821.21624 q -4.51027,5.18352 -9.12124,7.35185 -3.41217,1.58501 -7.1943,1.91291 -3.80527,0.30776 -7.05457,-0.77111 -4.33812,-1.41635 -8.48031,-5.02054 -7.49759,-6.52379 -7.93972,-15.08129 -0.46528,-8.57764 6.74311,-16.86201 7.14797,-8.21495 15.66129,-8.98015 8.49319,-0.74206 15.96764,5.76159 7.56701,6.58419 8.02628,15.07528 0.43913,8.51422 -6.60818,16.61347 z m -7.25926,-5.90981 q 5.01365,-5.76204 4.9499,-11.06273 -0.0839,-5.27755 -4.17979,-8.84147 -4.09591,-3.56393 -9.26797,-2.90033 -5.21534,0.66661 -10.3498,6.56749 -5.07406,5.83146 -5.0022,10.93591 0.0487,5.08431 4.28347,8.76904 4.23475,3.68474 9.36354,3.02414 5.10865,-0.63745 10.20285,-6.49205 z"
       id="path979" />
    <path
       d="m 230.44455,773.06913 -32.6075,30.42956 -6.19474,-6.63811 27.06826,-25.2603 -15.40313,-16.50558 5.53924,-5.16926 z"
       id="path981" />
    <path
       d="m 207.04422,747.60156 -35.17422,27.42228 -5.58253,-7.16064 29.19896,-22.76389 -13.88089,-17.80483 5.97527,-4.65839 z"
       id="path983" />
    <path
       d="m 186.0674,720.40656 -37.82497,24.31971 -18.03242,-28.0462 6.39877,-4.11412 13.12203,20.40897 8.38548,-5.39148 -12.20963,-18.98988 6.37297,-4.09753 12.20962,18.98989 10.29479,-6.61908 -13.58652,-21.13141 6.37296,-4.09752 z"
       id="path985" />
    <path
       d="m 137.757,670.17739 -1.53072,-9.10774 q 7.47498,-1.55569 12.82326,1.01157 5.307,2.55396 8.60845,8.99645 4.08484,7.97123 1.28236,15.88723 -2.82977,7.92999 -12.27512,12.77025 -9.99133,5.12005 -18.14962,2.78641 -8.1856,-2.31965 -12.49427,-10.72766 -3.76309,-7.34335 -1.77278,-14.15381 1.16716,-4.04485 5.27228,-7.87189 l 6.00974,7.01928 q -2.74834,2.30453 -3.38895,5.49361 -0.6546,3.16178 0.99612,6.38303 2.28024,4.44969 6.90109,5.59742 4.60685,1.12044 11.75911,-2.54473 7.58904,-3.88899 9.41137,-8.26959 1.82233,-4.38059 -0.41594,-8.74839 -1.65072,-3.22124 -4.88721,-4.49244 -3.23648,-1.2712 -8.14917,-0.029 z"
       id="path987" />
    <path
       d="m 143.26426,641.64577 -34.72813,13.77787 4.92067,12.4029 -7.07108,2.80535 -13.178338,-33.21697 7.071078,-2.80535 4.90936,12.37439 34.72812,-13.77786 z"
       id="path989" />
    <path
       d="m 134.78765,619.00805 -42.744724,13.96658 -2.81999,-8.63059 42.744724,-13.96657 z"
       id="path991" />
    <path
       d="m 108.937,612.9189 q -6.6749,1.63008 -11.691862,0.7397 -3.701307,-0.67489 -6.979223,-2.5899 -3.285193,-1.94482 -5.316083,-4.70116 -2.725294,-3.66034 -4.027907,-8.9943 -2.357802,-9.65476 2.219956,-16.89841 4.570481,-7.27345 15.238397,-9.87867 10.578522,-2.5834 17.972542,1.70503 7.36422,4.29571 9.71475,13.92067 2.37963,9.74416 -2.14581,16.94346 -4.55523,7.20657 -14.98476,9.75358 z m -2.51752,-9.01582 q 7.41986,-1.81201 10.42701,-6.17761 2.97736,-4.35833 1.6893,-9.63269 -1.28806,-5.27436 -5.89481,-7.7174 -4.64382,-2.46557 -12.24248,-0.6099 -7.509259,1.83385 -10.396526,6.04387 -2.894544,4.18022 -1.562822,9.63337 1.331721,5.45315 5.901394,7.87368 4.539874,2.4278 12.078934,0.58668 z"
       id="path993" />
    <path
       d="m 119.75524,561.8755 -44.610364,5.66497 -1.1129,-8.76384 27.472414,-22.04108 -29.790956,3.78309 -1.062665,-8.36825 44.610361,-5.66497 1.14768,9.0377 -26.807304,21.67834 29.091074,-3.69421 z"
       id="path995" />
    <path
       d="m 92.256048,485.5782 q 3.772934,0.01 6.434673,2.68536 2.631139,2.64483 2.621439,6.38709 -0.01,3.77294 -2.68537,6.43468 -2.675503,2.63106 -6.417763,2.62135 -3.742259,-0.01 -6.373404,-2.65453 -2.661739,-2.67558 -2.651953,-6.44852 0.0097,-3.74226 2.654535,-6.3734 2.644908,-2.66182 6.417843,-2.65203 z"
       id="path997" />
    <path
       d="m 116.79974,452.98175 -18.783117,-2.32185 -27.866615,13.15282 1.305803,-10.5636 18.95502,-8.32011 -16.384808,-12.47223 1.283224,-10.38095 23.878381,19.61101 18.722232,2.31432 z"
       id="path999" />
    <path
       d="m 98.091123,423.60465 q -6.690637,-1.56423 -10.762841,-4.62688 -2.996161,-2.27556 -5.053944,-5.46579 -2.050799,-3.22009 -2.615898,-6.59687 -0.775705,-4.49706 0.474279,-9.8436 2.262541,-9.67753 9.620925,-14.06849 7.365367,-4.42082 18.058436,-1.92085 10.60347,2.47902 15.25937,9.64733 4.62604,7.16133 2.37048,16.80899 -2.28349,9.76714 -9.57515,14.14219 -7.32154,4.36807 -17.775657,1.92397 z m 1.831173,-9.17985 q 7.437364,1.7388 12.093514,-0.79529 4.62628,-2.54109 5.8623,-7.82788 1.23602,-5.2868 -1.76824,-9.54885 -3.02714,-4.2989 -10.64371,-6.07961 -7.52697,-1.75975 -12.005846,0.68979 -4.471893,2.41967 -5.749809,7.88568 -1.277917,5.46601 1.703453,9.69121 2.951502,4.21821 10.508338,5.98495 z"
       id="path1001" />
    <path
       d="m 88.36886,368.12392 3.026667,-8.5603 22.962413,8.11883 q 5.46586,1.93257 7.19785,2.18706 2.79708,0.3708 5.11366,-1.12013 2.29789,-1.53007 3.56582,-5.11614 1.28838,-3.64391 0.46788,-6.01627 -0.84942,-2.38259 -2.88549,-3.52544 -2.03606,-1.14285 -7.06813,-2.92204 l -23.454048,-8.29266 3.026668,-8.56029 22.26833,7.87342 q 7.63486,2.69946 10.54172,4.50809 2.90687,1.80863 4.41122,4.45531 1.51458,2.61777 1.71165,6.20126 0.16816,3.57326 -1.61103,8.60532 -2.1473,6.07318 -4.65001,8.73464 -2.5214,2.62232 -5.39242,3.65693 -2.89994,1.02439 -5.56264,0.73364 -3.94044,-0.4497 -11.05474,-2.96511 z"
       id="path1003" />
    <path
       d="m 144.93127,343.91129 -40.5891,-19.35721 8.22615,-17.24899 q 3.10296,-6.50643 5.61008,-8.91309 2.49263,-2.44755 6.13407,-2.8859 3.64145,-0.43835 7.24076,1.27818 4.56835,2.17868 6.27774,6.29036 1.68171,4.09847 -0.0915,9.81177 2.81807,-1.91852 5.49175,-2.75044 2.68688,-0.8596 8.82099,-1.53652 l 10.28201,-1.17959 -4.67425,9.80118 -11.65782,1.71291 q -6.23974,0.89841 -8.01254,1.48029 -1.80049,0.56866 -2.86407,1.65869 -1.09127,1.07681 -2.43809,3.90089 l -0.79225,1.66121 16.94443,8.08091 z m -19.51477,-19.36602 2.8917,-6.06344 q 2.81247,-5.89733 3.01392,-7.60241 0.20146,-1.70508 -0.62065,-3.11667 -0.8221,-1.41159 -2.64944,-2.28306 -2.04884,-0.97711 -3.82292,-0.46381 -1.78856,0.4724 -3.07149,2.30741 -0.61379,0.93071 -2.99052,5.91437 l -3.05015,6.39569 z"
       id="path1005" />
    <path
       d="m 175.47723,256.62285 7.27081,-5.69468 q 4.93682,5.82437 5.23559,11.74938 0.29075,5.88237 -3.79274,11.85987 -5.05244,7.39588 -13.34573,8.71434 -8.31862,1.30115 -17.08224,-4.68565 -9.27018,-6.33286 -11.11626,-14.61511 -1.87142,-8.29955 3.45788,-16.10069 4.65448,-6.81333 11.58857,-8.31733 4.11116,-0.90637 9.4341,0.87252 l -3.29676,8.63242 q -3.33731,-1.31399 -6.44513,-0.35373 -3.09051,0.93493 -5.13225,3.92368 -2.82037,4.12853 -1.62185,8.73646 1.21583,4.5826 7.85186,9.11596 7.04129,4.81021 11.76033,4.31911 4.71903,-0.49109 7.4875,-4.54363 2.04174,-2.98875 1.61286,-6.43938 -0.42888,-3.45063 -3.86654,-7.17354 z"
       id="path1007" />
    <path
       d="m 178.47905,242.39444 q -5.21273,-4.47649 -7.41099,-9.07326 -1.60715,-3.4018 -1.95962,-7.18172 -0.3325,-3.80319 0.72523,-7.05944 1.38813,-4.34723 4.96532,-8.51275 6.47491,-7.53984 15.02936,-8.03759 8.57443,-0.52102 16.90548,6.63336 8.26124,7.09443 9.08176,15.6026 0.79725,8.48818 -5.65768,16.00475 -6.53487,7.60965 -15.02279,8.12409 -8.51119,0.49447 -16.65607,-6.50004 z m 5.8625,-7.29753 q 5.7945,4.97609 11.09467,4.87789 5.2769,-0.11818 8.81412,-4.23717 3.53722,-4.11898 2.84002,-9.28663 -0.70049,-5.21089 -6.63462,-10.30689 -5.86432,-5.03605 -10.96819,-4.93101 -5.08389,0.0818 -8.74102,4.34038 -3.65713,4.25861 -2.96321,9.383 0.67064,5.1044 6.55823,10.16043 z"
       id="path1009" />
    <path
       d="m 226.47558,221.45417 -30.69559,-32.35719 6.58716,-6.24889 25.48114,26.86046 16.37888,-15.53779 5.21445,5.49671 z"
       id="path1011" />
    <path
       d="m 251.74479,197.83885 -27.68042,-34.97144 7.11936,-5.63507 22.97817,29.03062 17.70219,-14.01154 4.70224,5.94081 z"
       id="path1013" />
    <path
       d="m 278.78073,176.65351 -24.44866,-37.74176 27.98451,-18.12802 4.13592,6.38469 -20.36407,13.1916 5.42006,8.36703 18.94811,-12.27436 4.11925,6.35894 -18.94811,12.27436 6.65417,10.27214 21.08492,-13.65856 4.11925,6.35895 z"
       id="path1015" />
    <path
       d="m 329.03182,128.30053 9.11224,-1.50376 q 1.53356,7.47955 -1.04951,12.82021 -2.56965,5.29942 -9.02189,8.58179 -7.98327,4.06124 -15.89095,1.23536 -7.92158,-2.85322 -12.73388,-12.31286 -5.09045,-10.00643 -2.73269,-18.15778 2.34386,-8.1787 10.76457,-12.46247 7.35446,-3.74135 14.159,-1.7309 4.04138,1.17913 7.85625,5.29554 l -7.03702,5.98895 q -2.2964,-2.75514 -5.48357,-3.40518 -3.15982,-0.66396 -6.38594,0.97723 -4.45642,2.26706 -5.61782,6.88449 -1.13406,4.60352 2.50993,11.7666 3.86653,7.60051 8.24171,9.43579 4.37518,1.83528 8.74958,-0.39006 3.22612,-1.64118 4.50689,-4.87389 1.28077,-3.23271 0.0531,-8.14906 z"
       id="path1017" />
    <path
       d="m 357.57495,133.95373 -13.55345,-34.816328 -12.43441,4.840518 -2.75965,-7.089038 33.30133,-12.963686 2.75965,7.089038 -12.40581,4.82939 13.55345,34.816326 z"
       id="path1019" />
    <path
       d="m 380.26976,125.63214 -13.66431,-42.842303 8.65029,-2.75896 13.66431,42.842303 z"
       id="path1021" />
    <path
       d="m 386.51656,99.849163 q -1.59171,-6.684151 -0.67253,-11.695918 0.69614,-3.697369 2.62995,-6.964231 1.96366,-3.273968 4.73162,-5.288992 3.67593,-2.704223 9.01728,-3.976175 9.66815,-2.302305 16.88538,2.316986 7.24708,4.612185 9.79098,15.29489 2.52259,10.593187 -1.80824,17.962447 -4.33794,7.33943 -13.97624,9.63463 -9.75767,2.32362 -16.93085,-2.24309 -7.18029,-4.59656 -9.66735,-15.040547 z m 9.03013,-2.465693 q 1.76936,7.43015 6.11762,10.46233 4.34115,3.00234 9.62282,1.7446 5.28167,-1.25774 7.75114,-5.85038 2.4922,-4.629588 0.6802,-12.238777 -1.79068,-7.51967 -5.98404,-10.431072 -4.16353,-2.918508 -9.62424,-1.618132 -5.46071,1.300376 -7.90745,5.856069 -2.45384,4.525853 -0.65605,12.075362 z"
       id="path1023" />
    <path
       d="m 437.46468,110.71562 -5.01339,-44.688288 8.77915,-0.984893 21.63784,27.791132 -3.34796,-29.842994 8.38287,-0.940436 5.01338,44.688279 -9.0535,1.01568 -21.28483,-27.120803 3.2693,29.141883 z"
       id="path1025" />
  </g>
  <g
     aria-label="X"
     id="text3798"
     style="font-weight:900;font-size:320px;line-height:1.25;font-family:Mont;-inkscape-font-specification:'Mont, Heavy'"
     transform="translate(3.72562,4.0183271)">
    <path
       d="m 602.58164,608.24744 -67.52,-115.2 63.04,-108.8 h -68.8 l -33.6,63.68 -33.6,-63.68 h -69.76 l 63.68,107.52 -67.52,116.48 h 70.08 l 37.44,-68.8 36.8,68.8 z"
       id="path13139" />
  </g>
</svg>
