<?xml version="1.0" encoding="UTF-8" standalone="no"?>
<svg
   width="1000"
   height="1000"
   version="1.1"
   id="svg22"
   sodipodi:docname="_Profile2.svg"
   inkscape:version="1.1.1 (3bf5ae0d25, 2021-09-20)"
   inkscape:export-xdpi="96"
   inkscape:export-ydpi="96"
   xmlns:inkscape="http://www.inkscape.org/namespaces/inkscape"
   xmlns:sodipodi="http://sodipodi.sourceforge.net/DTD/sodipodi-0.dtd"
   xmlns="http://www.w3.org/2000/svg"
   xmlns:svg="http://www.w3.org/2000/svg">
  <defs
     id="defs26">
    <pattern
       id="EMFhbasepattern"
       patternUnits="userSpaceOnUse"
       width="6"
       height="6"
       x="0"
       y="0" />
  </defs>
  <sodipodi:namedview
     id="namedview24"
     pagecolor="#ffffff"
     bordercolor="#666666"
     borderopacity="1.0"
     inkscape:pageshadow="2"
     inkscape:pageopacity="0.0"
     inkscape:pagecheckerboard="0"
     showgrid="false"
     inkscape:zoom="1.746"
     inkscape:cx="726.51775"
     inkscape:cy="548.10997"
     inkscape:window-width="3840"
     inkscape:window-height="2054"
     inkscape:window-x="-11"
     inkscape:window-y="-11"
     inkscape:window-maximized="1"
     inkscape:current-layer="svg22"
     showguides="true"
     inkscape:guide-bbox="true">
    <sodipodi:guide
       position="0,1000"
       orientation="0,1000"
       id="guide22980" />
    <sodipodi:guide
       position="1000,1000"
       orientation="1000,0"
       id="guide22982" />
    <sodipodi:guide
       position="1000,0"
       orientation="0,-1000"
       id="guide22984" />
    <sodipodi:guide
       position="500,1000"
       orientation="-1000,0"
       id="guide22986" />
    <sodipodi:guide
       position="-82.474227,491.98167"
       orientation="1,0"
       id="guide22988" />
    <sodipodi:guide
       position="464.49026,500.57274"
       orientation="0,-1"
       id="guide22990" />
    <sodipodi:guide
       position="-113.9748,549.25544"
       orientation="1,0"
       id="guide22992" />
    <sodipodi:guide
       position="500,675.25773"
       orientation="1,0"
       id="guide22994" />
    <sodipodi:guide
       position="733.43092,549.65479"
       orientation="1,0"
       id="guide25821" />
  </sodipodi:namedview>
  <mask
     id="_mask">
    <circle
       cx="500"
       cy="500"
       r="450"
       fill="white"
       stroke="none"
       id="circle2" />
  </mask>
  <path
     id="path-0"
     d="M 504.28 105.614 C 804.145 105.541 991.639 430.111 841.768 689.836 C 691.898 949.563 317.067 949.655 167.072 690 C 26.805 447.185 181.324 140.169 459.907 108.16 Z"
     style="fill: none;" />
  <circle
     cx="500"
     cy="500"
     r="450"
     fill="rgb(255,255,255)"
     id="circle6" />
  <circle
     cx="500"
     cy="500"
     fill="rgb(255,255,255)"
     mask="url(#_mask)"
     stroke-width="130"
     stroke="rgb(0,0,0)"
     stroke-linejoin="miter"
     stroke-linecap="square"
     stroke-miterlimit="3"
     id="circle8"
     r="450" />
  <text
     xml:space="preserve"
     style="font-style:normal;font-variant:normal;font-weight:900;font-stretch:normal;font-size:192px;line-height:1.25;font-family:Mont;-inkscape-font-specification:'Mont, Heavy';font-variant-ligatures:normal;font-variant-caps:normal;font-variant-numeric:normal;font-variant-east-asian:normal;fill:#000000;fill-opacity:1;stroke:none"
     x="383.73425"
     y="517.75488"
     id="text3296"><tspan
       sodipodi:role="line"
       id="tspan3294"
       x="383.73425"
       y="517.75488" /></text>
  <g
     aria-label="O"
     transform="scale(0.95485192,1.0472828)"
     id="text5325"
     style="font-size:317.776px;line-height:1.25;stroke-width:1.04728">
    <path
       d="m 380.27918,593.68506 c 71.4996,0 122.34376,-48.61973 122.34376,-116.6238 0,-68.32184 -50.84416,-116.94156 -122.34376,-116.94156 -71.4996,0 -122.34376,48.9375 -122.34376,116.94156 0,67.68629 50.84416,116.6238 122.34376,116.6238 z m 0,-56.88191 c -33.68425,0 -58.78856,-25.42208 -58.78856,-59.74189 0,-34.63758 25.10431,-60.05966 58.78856,-60.05966 34.00203,0 58.47079,25.1043 58.47079,60.05966 0,34.63759 -24.46876,59.74189 -58.47079,59.74189 z"
       style="font-family:'Mont Heavy DEMO';-inkscape-font-specification:'Mont Heavy DEMO'"
       id="path1914" />
  </g>
  <g
     aria-label="G"
     transform="scale(0.97359825,1.0271177)"
     id="text23335"
     style="font-size:324.551px;line-height:1.25;stroke-width:1.06961">
    <path
       d="m 649.9885,478.81989 v 39.59522 h 56.47187 c -7.14012,17.52576 -27.58684,29.20959 -51.60361,29.20959 -34.4024,0 -56.79642,-24.66587 -56.79642,-60.69103 0,-36.34971 22.71857,-61.01559 56.79642,-61.01559 23.04312,0 43.48983,12.33294 51.60361,31.48145 h 65.88385 c -9.73653,-52.57726 -58.41918,-89.90063 -118.13656,-89.90063 -69.77846,0 -120.40842,50.30541 -120.40842,119.43477 0,69.12936 51.60361,119.11021 121.05752,119.11021 71.07667,0 119.75932,-52.90181 119.75932,-127.22399 z"
       style="font-family:'Mont Heavy DEMO';-inkscape-font-specification:'Mont Heavy DEMO'"
       id="path3327" />
  </g>
</svg>
